<svg preserveAspectRatio="none" width="100%" height="100%" overflow="visible" style="display: block;" viewBox="0 0 18.0977 18.8476" fill="none" xmlns="http://www.w3.org/2000/svg">
<path id="Union" d="M2.38477 0.544844C2.52598 0.12656 2.97902 -0.0988671 3.39746 0.0419139L6.55664 1.10637C6.97514 1.24757 7.20061 1.70242 7.05957 2.12102L5.99512 5.27922C5.85396 5.69764 5.39997 5.92202 4.98145 5.78117C4.56297 5.63998 4.33752 5.18608 4.47852 4.7675L4.91406 3.47258C2.91339 4.82747 1.59971 7.11837 1.59961 9.71477C1.59972 13.8751 4.97248 17.2478 9.13281 17.248C11.24 17.2479 13.1446 16.3836 14.5127 14.9882C14.822 14.673 15.3291 14.6673 15.6445 14.9765C15.9599 15.2857 15.9642 15.7928 15.6553 16.1083C13.9987 17.798 11.6873 18.8475 9.13281 18.8476C4.08883 18.8474 0.000110881 14.7588 0 9.71477C9.92801e-05 6.47544 1.68575 3.63092 4.22656 2.00969L2.88672 1.55852C2.46822 1.41744 2.24396 0.963401 2.38477 0.544844ZM16.5986 12.7167C17.0126 12.7168 17.3484 13.0528 17.3486 13.4667C17.3486 13.8809 17.0128 14.2166 16.5986 14.2167C16.1844 14.2167 15.8486 13.8809 15.8486 13.4667C15.8489 13.0527 16.1846 12.7167 16.5986 12.7167ZM9.19238 5.15812C9.47258 5.15818 9.70358 5.37735 9.71875 5.65715L9.91504 9.26652L11.7861 11.4013C11.9712 11.6124 11.961 11.9311 11.7627 12.1298C11.5637 12.3288 11.2444 12.3391 11.0332 12.1532L8.62402 10.0312C8.50936 9.93017 8.44705 9.78239 8.45508 9.6298L8.66504 5.65715C8.67999 5.37715 8.91196 5.15812 9.19238 5.15812ZM17.3477 10.2431C17.7618 10.2431 18.0976 10.5789 18.0977 10.9931C18.0977 11.4073 17.7619 11.7431 17.3477 11.7431C16.9336 11.7429 16.5977 11.4072 16.5977 10.9931C16.5977 10.579 16.9336 10.2433 17.3477 10.2431ZM17.3477 7.63176C17.7619 7.63176 18.0977 7.96754 18.0977 8.38176C18.0976 8.79596 17.7619 9.13176 17.3477 9.13176C16.9336 9.13158 16.5977 8.79585 16.5977 8.38176C16.5977 7.96765 16.9336 7.63193 17.3477 7.63176ZM16.5986 5.15812C17.0128 5.15821 17.3486 5.49397 17.3486 5.90812C17.3484 6.32213 17.0127 6.65804 16.5986 6.65812C16.1845 6.65812 15.8488 6.32218 15.8486 5.90812C15.8486 5.49391 16.1844 5.15812 16.5986 5.15812ZM14.9316 2.9052C15.3459 2.9052 15.6816 3.24098 15.6816 3.6552C15.6816 4.0694 15.3458 4.4052 14.9316 4.4052C14.5175 4.40511 14.1816 4.06935 14.1816 3.6552C14.1816 3.24104 14.5175 2.90528 14.9316 2.9052ZM12.5879 1.4052C13.0021 1.4052 13.3379 1.74098 13.3379 2.1552C13.3378 2.56929 13.002 2.9052 12.5879 2.9052C12.1738 2.90511 11.838 2.56923 11.8379 2.1552C11.8379 1.74104 12.1738 1.40528 12.5879 1.4052Z" fill="var(--fill-0, white)" fill-opacity="0.9"/>
</svg>
