<svg preserveAspectRatio="none" width="100%" height="100%" overflow="visible" style="display: block;" viewBox="0 0 21.5996 17.5996" fill="none" xmlns="http://www.w3.org/2000/svg">
<path id="Email" d="M18.7197 1.78563e-06C19.0705 1.66465e-06 19.3818 -0.000470849 19.6387 0.0205096C19.9048 0.0422658 20.1826 0.0907028 20.4531 0.228517C20.8482 0.429858 21.1698 0.751408 21.3711 1.14649C21.5089 1.417 21.5574 1.6948 21.5791 1.96094C21.6001 2.21779 21.5996 2.52918 21.5996 2.87988V14.7197C21.5996 15.0704 21.6001 15.3818 21.5791 15.6387C21.5573 15.9048 21.5089 16.1826 21.3711 16.4531C21.1698 16.8482 20.8482 17.1698 20.4531 17.3711C20.1826 17.5089 19.9048 17.5573 19.6387 17.5791C19.3818 17.6001 19.0705 17.5996 18.7197 17.5996H2.87988C2.52916 17.5996 2.2178 17.6001 1.96094 17.5791C1.69479 17.5574 1.41701 17.5089 1.14649 17.3711C0.751415 17.1698 0.429858 16.8482 0.228517 16.4531C0.0907125 16.1826 0.042268 15.9048 0.0205096 15.6387C-0.00046973 15.3818 1.61161e-06 15.0704 1.78643e-06 14.7197V2.87988C1.78643e-06 2.52917 -0.000458465 2.2178 0.0205096 1.96094C0.0422572 1.69476 0.0907163 1.41703 0.228517 1.14649C0.429852 0.751346 0.751346 0.429851 1.14649 0.228517C1.41706 0.0906882 1.69474 0.0422592 1.96094 0.0205096C2.21781 -0.00046381 2.52914 1.78563e-06 2.87988 1.78563e-06H18.7197ZM13.4609 9.91406C12.7219 10.4314 12.1841 10.8234 11.5742 10.9756C11.0661 11.1023 10.5335 11.1022 10.0254 10.9756C9.4155 10.8235 8.87764 10.4313 8.13867 9.91406L1.59961 5.33594V14.7197C1.59961 15.0968 1.60081 15.3322 1.61524 15.5088C1.6288 15.6743 1.65024 15.7186 1.6543 15.7266C1.70224 15.8206 1.77904 15.8974 1.87305 15.9453C1.88152 15.9496 1.92639 15.9709 2.09082 15.9844C2.26745 15.9988 2.50276 16 2.87988 16H18.7197C19.0969 16 19.3322 15.9988 19.5088 15.9844C19.6744 15.9708 19.7186 15.9494 19.7266 15.9453C19.8206 15.8974 19.8974 15.8206 19.9453 15.7266C19.9494 15.7186 19.9708 15.6743 19.9844 15.5088C19.9988 15.3322 20 15.0968 20 14.7197V5.33594L13.4609 9.91406ZM2.87988 1.59961C2.50273 1.59961 2.26745 1.60081 2.09082 1.61524C1.92534 1.62878 1.88112 1.6502 1.87305 1.6543C1.77897 1.70224 1.70224 1.77897 1.6543 1.87305C1.65011 1.88131 1.62874 1.92583 1.61524 2.09082C1.60082 2.26745 1.59961 2.50278 1.59961 2.87988V3.38281L9.05664 8.60254C9.90412 9.19577 10.1602 9.35981 10.4131 9.42285C10.667 9.48606 10.9327 9.48609 11.1865 9.42285C11.4394 9.35979 11.6954 9.19581 12.543 8.60254L20 3.38281V2.87988C20 2.50279 19.9988 2.26744 19.9844 2.09082C19.9709 1.92654 19.9496 1.88158 19.9453 1.87305C19.8974 1.77903 19.8206 1.70224 19.7266 1.6543C19.7186 1.65023 19.6743 1.6288 19.5088 1.61524C19.3322 1.60081 19.0969 1.59961 18.7197 1.59961H2.87988Z" fill="var(--fill-0, white)" fill-opacity="0.9"/>
</svg>
