<svg preserveAspectRatio="none" width="100%" height="100%" overflow="visible" style="display: block;" viewBox="0 0 18.2666 14.9336" fill="none" xmlns="http://www.w3.org/2000/svg">
<path id="Email" d="M15.3867 1.88093e-06C15.7373 1.28665e-06 16.0489 -0.000469143 16.3057 0.0205097C16.5717 0.0422856 16.8497 0.0907279 17.1201 0.228518C17.515 0.429839 17.8358 0.751531 18.0371 1.14649C18.175 1.41706 18.2243 1.69473 18.2461 1.96094C18.2671 2.2178 18.2666 2.52916 18.2666 2.87988V12.0527C18.2666 12.4033 18.267 12.7149 18.2461 12.9717C18.2243 13.2378 18.1749 13.5156 18.0371 13.7861C17.8359 14.1811 17.515 14.5028 17.1201 14.7041C16.8497 14.8419 16.5718 14.8913 16.3057 14.9131C16.0489 14.9341 15.7373 14.9336 15.3867 14.9336H2.87988C2.52926 14.9336 2.21776 14.934 1.96094 14.9131C1.69476 14.8913 1.41704 14.8419 1.14649 14.7041C0.751362 14.5028 0.42985 14.1813 0.228517 13.7861C0.0907778 13.5156 0.042253 13.2378 0.0205096 12.9717C-0.000438114 12.7149 1.78574e-06 12.4033 1.78574e-06 12.0527V2.87988C1.66679e-06 2.52915 -0.000470904 2.2178 0.0205096 1.96094C0.0422662 1.69478 0.0907047 1.41701 0.228517 1.14649C0.429859 0.751456 0.751426 0.429811 1.14649 0.228518C1.41696 0.0908027 1.69483 0.0422514 1.96094 0.0205097C2.21777 -0.000444813 2.52925 1.88093e-06 2.87988 1.88093e-06H15.3867ZM11.7939 8.24707C11.055 8.76436 10.5171 9.15645 9.90723 9.3086C9.39918 9.43524 8.86743 9.43515 8.35938 9.3086C7.74942 9.15655 7.21163 8.76436 6.47266 8.24707L1.59961 4.83594V12.0527C1.59961 12.4299 1.60081 12.6652 1.61524 12.8418C1.62891 13.0091 1.65049 13.0531 1.6543 13.0605C1.70225 13.1545 1.77909 13.2304 1.87305 13.2783C1.88126 13.2825 1.92567 13.3048 2.09082 13.3184C2.26743 13.3328 2.50288 13.333 2.87988 13.333H15.3867C15.7633 13.333 15.9983 13.3328 16.1748 13.3184C16.3418 13.3047 16.3861 13.2821 16.3936 13.2783C16.4873 13.2304 16.5645 13.1544 16.6123 13.0605C16.6164 13.0524 16.6378 13.0074 16.6514 12.8418C16.6658 12.6652 16.666 12.4298 16.666 12.0527V4.83594L11.7939 8.24707ZM2.87988 1.59961C2.5029 1.59961 2.26743 1.60083 2.09082 1.61524C1.92725 1.62862 1.88186 1.64985 1.87305 1.6543C1.77905 1.70219 1.70224 1.77908 1.6543 1.87305C1.65024 1.88104 1.6288 1.92528 1.61524 2.09082C1.60081 2.26745 1.59961 2.50273 1.59961 2.87988V2.88281L7.38965 6.93653C8.23702 7.52969 8.49321 7.6928 8.7461 7.75586C9.00011 7.81913 9.2665 7.81918 9.52051 7.75586C9.7732 7.69268 10.0302 7.52927 10.877 6.93653L16.666 2.88379V2.87988C16.666 2.50273 16.6658 2.26745 16.6514 2.09082C16.6379 1.9263 16.6166 1.88146 16.6123 1.87305C16.5644 1.77906 16.4875 1.70224 16.3936 1.6543C16.3861 1.6505 16.3418 1.62891 16.1748 1.61524C15.9983 1.60084 15.7634 1.59961 15.3867 1.59961H2.87988Z" fill="var(--fill-0, white)" fill-opacity="0.9"/>
</svg>
