<svg preserveAspectRatio="none" width="100%" height="100%" overflow="visible" style="display: block;" viewBox="0 0 38 24" fill="none" xmlns="http://www.w3.org/2000/svg">
<g id="Frame" clip-path="url(#clip0_12120_50603)">
<path id="Vector" d="M17.7 0V24H10.5C9.2 24 8.4 23 8.7 21.7L13.1 2.3C13.4 0.999999 15 0 16.3 0H17.7ZM30.3 0C29 0 27.4 0.999999 27.1 2.3L22.6 21.7C22.3 23 23.1 24 24.4 24H19.5V0H30.3Z" fill="var(--fill-0, #005B9A)"/>
<path id="Vector_2" d="M16.3 0C15 0 13.4 1.1 13.1 2.3L8.7 21.7C8.4 23 9.2 24 10.5 24H1.6C0.799998 24 0.0999985 23.4 0.0999985 22.6V1.6C0.0999985 0.8 0.799998 0 1.6 0H16.3Z" fill="var(--fill-0, #E9292D)"/>
<path id="Vector_3" d="M30.3 0C29 0 27.4 1.1 27.1 2.3L22.7 21.7C22.4 23 23.2 24 24.5 24H10H10.5C9.2 24 8.4 23 8.7 21.7L13.1 2.3C13.4 0.999999 15 0 16.3 0H30.3Z" fill="var(--fill-0, #0E73B9)"/>
<path id="Vector_4" d="M38 1.6V22.6C38 23.4 37.4 24 36.5 24H24.4C23.1 24 22.3 22.9 22.6 21.7L27.1 2.3C27.4 0.999999 29 0 30.3 0H36.5C37.4 0 38 0.7 38 1.6Z" fill="var(--fill-0, #059DA4)"/>
<path id="Vector_5" d="M14.878 13.645H15.018C15.158 13.645 15.298 13.575 15.298 13.505L15.718 12.875H16.908L16.698 13.225H18.098L17.888 13.855H16.208C15.998 14.135 15.788 14.275 15.508 14.275H14.668L14.878 13.645ZM14.668 14.555H17.678L17.468 15.255H16.278L16.068 15.955H17.258L17.048 16.655H15.858L15.578 17.705C15.508 17.845 15.578 17.985 15.858 17.915H16.838L16.628 18.615H14.738C14.388 18.615 14.248 18.405 14.388 17.985L14.738 16.655H13.968L14.178 15.955H14.948L15.158 15.255H14.458L14.668 14.555ZM19.498 12.805V13.225C19.498 13.225 20.058 12.805 20.618 12.805H22.578L21.808 15.465C21.738 15.745 21.458 15.955 21.038 15.955H18.798L18.308 17.845C18.308 17.915 18.308 17.985 18.448 17.985H18.868L18.728 18.545H17.608C17.188 18.545 17.048 18.405 17.118 18.195L18.588 12.805H19.498ZM21.178 13.575H19.428L19.218 14.275C19.218 14.275 19.498 14.065 19.988 14.065H21.038L21.178 13.575ZM20.548 15.255C20.688 15.255 20.758 15.255 20.758 15.115L20.898 14.765H19.148L19.008 15.325L20.548 15.255ZM19.358 16.095H20.338V16.515H20.618C20.758 16.515 20.828 16.445 20.828 16.375L20.898 16.095H21.738L21.598 16.585C21.528 16.935 21.248 17.075 20.828 17.145H20.268V17.915C20.268 18.055 20.338 18.125 20.618 18.125H21.108L20.968 18.685H19.778C19.428 18.685 19.288 18.545 19.288 18.195L19.358 16.095ZM23.558 13.645L23.768 12.805H24.958L24.888 13.085C24.888 13.085 25.448 12.805 25.938 12.805H27.408L27.198 13.645H26.988L25.868 17.495H26.078L25.868 18.265H25.658L25.588 18.615H24.398L24.468 18.265H22.298L22.508 17.495H22.718L23.838 13.645H23.558ZM24.818 13.645L24.538 14.695C24.538 14.695 25.028 14.485 25.448 14.415C25.518 14.065 25.658 13.645 25.658 13.645H24.818ZM24.328 15.185L24.048 16.305C24.048 16.305 24.608 16.025 25.028 16.025C25.168 15.605 25.238 15.255 25.238 15.255L24.328 15.185ZM24.538 17.495L24.748 16.725H23.908L23.698 17.495H24.538ZM27.408 12.805H28.528L28.598 13.225C28.598 13.295 28.668 13.365 28.808 13.365H29.018L28.808 14.065H28.038C27.758 14.065 27.548 13.995 27.548 13.715L27.408 12.805ZM27.058 14.275H30.628L30.418 15.045H29.228L29.018 15.745H30.138L29.928 16.515H28.668L28.388 16.935H29.018L29.158 17.775C29.158 17.845 29.228 17.915 29.368 17.915H29.578L29.368 18.615H28.668C28.318 18.615 28.108 18.545 28.108 18.265L27.968 17.495L27.408 18.335C27.268 18.545 27.058 18.685 26.778 18.685H25.728L25.938 17.985H26.288C26.428 17.985 26.498 17.915 26.638 17.775L27.478 16.515H26.428L26.638 15.745H27.828L28.038 15.045H26.848L27.058 14.275ZM7.318 9.235C7.178 9.935 6.898 10.425 6.408 10.775C5.918 11.125 5.288 11.335 4.518 11.335C3.818 11.335 3.258 11.125 2.978 10.775C2.768 10.495 2.628 10.215 2.628 9.795C2.628 9.655 2.628 9.445 2.698 9.235L3.538 5.315H4.728L3.958 9.235V9.515C3.958 9.725 4.028 9.865 4.098 10.005C4.238 10.215 4.448 10.285 4.798 10.285C5.148 10.285 5.498 10.215 5.708 10.005C5.918 9.795 6.128 9.585 6.198 9.235L6.968 5.315H8.158L7.318 9.235ZM8.438 7.695H9.278L9.208 8.185L9.348 8.045C9.628 7.765 9.978 7.625 10.398 7.625C10.748 7.625 11.028 7.765 11.168 7.975C11.308 8.185 11.378 8.465 11.308 8.885L10.818 11.265H9.908L10.328 9.095C10.398 8.815 10.398 8.605 10.328 8.535C10.258 8.395 10.118 8.395 9.978 8.395C9.768 8.395 9.558 8.465 9.418 8.605C9.278 8.745 9.138 8.955 9.138 9.235L8.718 11.265H7.808L8.438 7.695ZM18.238 7.695H19.078L19.008 8.185L19.148 8.045C19.428 7.765 19.778 7.625 20.198 7.625C20.548 7.625 20.828 7.765 20.968 7.975C21.108 8.185 21.178 8.465 21.108 8.885L20.618 11.265H19.708L20.128 9.025C20.198 8.815 20.128 8.605 20.058 8.535C19.988 8.395 19.848 8.395 19.708 8.395C19.498 8.395 19.288 8.465 19.148 8.605C19.008 8.745 18.868 8.955 18.868 9.235L18.448 11.265H17.538L18.238 7.695ZM12.428 7.695H13.408L12.638 11.195H11.658L12.428 7.695ZM12.778 6.365H13.758L13.548 7.205H12.568L12.778 6.365ZM14.178 10.915C13.968 10.705 13.828 10.355 13.828 9.935V9.725C13.828 9.655 13.828 9.515 13.898 9.445C14.038 8.885 14.248 8.395 14.598 8.115C14.948 7.765 15.438 7.625 15.928 7.625C16.348 7.625 16.698 7.765 16.978 7.975C17.188 8.185 17.328 8.535 17.328 8.955V9.165C17.328 9.235 17.328 9.375 17.258 9.445C17.118 10.005 16.908 10.425 16.558 10.775C16.208 11.125 15.718 11.265 15.228 11.265C14.878 11.265 14.528 11.125 14.178 10.915ZM16.068 10.215C16.208 10.005 16.348 9.725 16.418 9.375V9.025C16.418 8.815 16.348 8.675 16.278 8.535C16.2164 8.46657 16.1407 8.41235 16.0561 8.37609C15.9715 8.33983 15.88 8.3224 15.788 8.325C15.508 8.325 15.298 8.395 15.158 8.605C15.018 8.815 14.878 9.095 14.808 9.445V9.725C14.808 9.935 14.878 10.075 14.948 10.215C15.088 10.355 15.228 10.425 15.438 10.425C15.718 10.495 15.858 10.425 16.068 10.215ZM22.578 5.525H25.098C25.588 5.525 25.938 5.665 26.218 5.875C26.498 6.085 26.568 6.435 26.568 6.785V7.065C26.568 7.135 26.568 7.275 26.498 7.345C26.428 7.835 26.148 8.325 25.798 8.605C25.378 8.955 24.958 9.095 24.398 9.095H22.998L22.578 11.125H21.388L22.578 5.525ZM23.138 8.115H24.258C24.538 8.115 24.748 8.045 24.958 7.905C25.098 7.765 25.238 7.555 25.308 7.275V6.995C25.308 6.785 25.238 6.645 25.098 6.575C24.958 6.505 24.748 6.435 24.398 6.435H23.488L23.138 8.115ZM31.818 11.825C31.468 12.595 31.118 13.085 30.908 13.295C30.698 13.505 30.278 13.995 29.298 13.995L29.368 13.365C30.208 13.085 30.628 11.965 30.908 11.405L30.628 7.625H31.818L31.888 10.005L32.798 7.695H33.848L31.818 11.825ZM28.878 7.975L28.458 8.255C28.038 7.905 27.618 7.695 26.918 8.045C25.938 8.535 25.028 12.175 27.828 10.985L27.968 11.195H29.088L29.788 7.905L28.878 7.975ZM28.318 9.795C28.108 10.355 27.758 10.635 27.408 10.565C27.128 10.425 27.058 9.935 27.198 9.375C27.408 8.815 27.758 8.535 28.108 8.605C28.388 8.745 28.458 9.235 28.318 9.795Z" fill="var(--fill-0, white)"/>
</g>
<defs>
<clipPath id="clip0_12120_50603">
<rect width="38" height="24" fill="white"/>
</clipPath>
</defs>
</svg>
