<svg preserveAspectRatio="none" width="100%" height="100%" overflow="visible" style="display: block;" viewBox="0 0 37.4888 23.9998" fill="none" xmlns="http://www.w3.org/2000/svg">
<path id="Vector" d="M34.1316 0H3.35726C3.22907 0 3.10065 0 2.97268 0.00067947C2.86464 0.00158543 2.75683 0.00271788 2.6488 0.00566225C2.41348 0.012004 2.17611 0.0260463 1.94374 0.0677205C1.71069 0.107648 1.48489 0.182074 1.27378 0.288548C0.849374 0.504411 0.504411 0.849374 0.288548 1.27378C0.181884 1.48497 0.10745 1.71095 0.0677205 1.94419C0.0255934 2.17679 0.0117775 2.41393 0.00543576 2.64903C0.00267543 2.75697 0.00101442 2.86493 0.00045298 2.97291C0 3.10065 0 3.22884 0 3.35726V20.6425C0 20.7709 0 20.8989 0.00045298 21.0273C0.00113245 21.1351 0.00249139 21.2432 0.00543576 21.3512C0.0117775 21.5858 0.0258198 21.8232 0.0677205 22.0556C0.107368 22.2888 0.181727 22.5148 0.288322 22.726C0.395493 22.9369 0.535383 23.1296 0.702798 23.2967C0.869926 23.4642 1.06257 23.6041 1.27355 23.7112C1.48804 23.8206 1.70773 23.8902 1.94396 23.9325C2.17611 23.974 2.41348 23.988 2.6488 23.9943C2.75683 23.9968 2.86464 23.9982 2.97268 23.9989C3.10065 23.9998 3.22907 23.9998 3.35726 23.9998H34.1316C34.2595 23.9998 34.388 23.9998 34.5159 23.9989C34.6237 23.9984 34.7315 23.9968 34.84 23.9943C35.0749 23.988 35.3123 23.974 35.5451 23.9325C35.7782 23.8925 36.004 23.818 36.2151 23.7112C36.6392 23.4951 36.9841 23.1502 37.2003 22.726C37.3097 22.5115 37.379 22.2918 37.4209 22.0556C37.463 21.8232 37.4766 21.5858 37.4829 21.3512C37.4859 21.2432 37.4875 21.1351 37.4879 21.0273C37.4888 20.8989 37.4888 20.7709 37.4888 20.6425V3.35749C37.4888 3.22907 37.4888 3.10087 37.4879 2.97268C37.4875 2.86478 37.4858 2.75689 37.4829 2.64903C37.4766 2.41393 37.463 2.17679 37.4209 1.94419C37.3814 1.71091 37.3071 1.4849 37.2003 1.27378C36.9843 0.849448 36.6394 0.504513 36.2151 0.288548C36.0039 0.182184 35.7781 0.107836 35.5451 0.067947C35.3123 0.0260463 35.0749 0.0122305 34.84 0.00588874C34.732 0.00314533 34.624 0.00148432 34.5159 0.000905959C34.388 0 34.2595 0 34.1316 0Z" fill="var(--fill-0, black)"/>
</svg>
