<svg preserveAspectRatio="none" width="100%" height="100%" overflow="visible" style="display: block;" viewBox="0 0 17.9434 10.8033" fill="none" xmlns="http://www.w3.org/2000/svg">
<g id="Group">
<path id="Vector" d="M3.1849 0C4.83329 0 5.98137 1.1363 5.98137 2.79058C5.98137 4.45075 4.80974 5.59294 3.14368 5.59294H1.31862V8.49564H2.38419e-07V0H3.1849ZM1.31862 4.48609H2.83158C3.97988 4.48609 4.63308 3.86799 4.63308 2.79647C4.63308 1.72517 3.97965 1.11274 2.83747 1.11274H1.31862V4.48609Z" fill="var(--fill-0, black)"/>
<path id="Vector_2" d="M6.30842 6.73513C6.30842 5.64594 7.13851 5.02196 8.66913 4.92774L10.3116 4.82763V4.35653C10.3116 3.668 9.85842 3.29112 9.05189 3.29112C8.38647 3.29112 7.90359 3.63244 7.80393 4.15632H6.61441C6.64997 3.05557 7.68593 2.25493 9.08723 2.25493C10.5943 2.25493 11.5775 3.0438 11.5775 4.26843V8.49541H10.359V7.47688H10.3295C9.98209 8.14208 9.21655 8.55996 8.38647 8.55996C7.16206 8.55996 6.30842 7.83021 6.30842 6.73513ZM10.3116 6.1877V5.71072L8.84579 5.80494C8.02137 5.85793 7.59194 6.16392 7.59194 6.69957C7.59194 7.21778 8.03926 7.55344 8.73979 7.55344C9.63443 7.55344 10.3116 6.98223 10.3116 6.1877Z" fill="var(--fill-0, black)"/>
<path id="Vector_3" d="M12.6979 10.7678V9.74948C12.7804 9.76103 12.9804 9.77281 13.0864 9.77281C13.6691 9.77281 13.9989 9.52594 14.1991 8.88973L14.3169 8.51307L12.0855 2.33149H13.463L15.0174 7.34733H15.0469L16.601 2.33149H17.9434L15.6296 8.82495C15.0996 10.3146 14.4933 10.8033 13.21 10.8033C13.1099 10.8033 12.786 10.7916 12.6979 10.7678Z" fill="var(--fill-0, black)"/>
</g>
</svg>
