<svg preserveAspectRatio="none" width="100%" height="100%" overflow="visible" style="display: block;" viewBox="0 0 38 24" fill="none" xmlns="http://www.w3.org/2000/svg">
<g id="Frame" clip-path="url(#clip0_12120_50550)">
<path id="Vector" opacity="0.07" d="M35 0H3C1.3 0 0 1.3 0 3V21C0 22.7 1.4 24 3 24H35C36.7 24 38 22.7 38 21V3C38 1.3 36.6 0 35 0Z" fill="var(--fill-0, black)"/>
<path id="Vector_2" d="M35 1C36.1 1 37 1.9 37 3V21C37 22.1 36.1 23 35 23H3C1.9 23 1 22.1 1 21V3C1 1.9 1.9 1 3 1H35Z" fill="var(--fill-0, white)"/>
<path id="Vector_3" d="M18.093 11.976V15.176H17.075V7.276H19.766C20.0884 7.27054 20.4088 7.32887 20.7086 7.44763C21.0084 7.56638 21.2818 7.74323 21.513 7.968C21.732 8.17239 21.9086 8.41795 22.0327 8.69064C22.1568 8.96332 22.2259 9.25779 22.2361 9.5572C22.2464 9.85662 22.1975 10.1551 22.0923 10.4356C21.9871 10.7161 21.8276 10.9732 21.623 11.192L21.513 11.308C21.043 11.755 20.415 11.998 19.766 11.982L18.093 11.976ZM18.093 8.244V11.032H19.791C20.168 11.044 20.532 10.897 20.796 10.628C20.9848 10.4312 21.1116 10.1832 21.1606 9.91483C21.2096 9.6465 21.1786 9.36969 21.0715 9.11883C20.9644 8.86797 20.7859 8.65413 20.5583 8.50392C20.3306 8.35371 20.0638 8.27375 19.791 8.274L18.093 8.244ZM24.577 9.592C25.227 9.562 25.863 9.78 26.355 10.205C26.8 10.635 27.037 11.235 27.005 11.854V15.188H26.036V14.422H25.987C25.8132 14.7093 25.5675 14.9463 25.2741 15.1096C24.9807 15.2729 24.6498 15.3568 24.314 15.353C23.7659 15.3707 23.2314 15.1803 22.818 14.82C22.6221 14.6602 22.4652 14.458 22.359 14.2286C22.2528 13.9992 22.2001 13.7487 22.205 13.496C22.1935 13.2406 22.2431 12.9861 22.3497 12.7538C22.4563 12.5214 22.6169 12.3178 22.818 12.16C23.3114 11.8052 23.9086 11.624 24.516 11.645C25.033 11.625 25.546 11.738 26.006 11.976V11.768C26.0094 11.596 25.9736 11.4255 25.9013 11.2694C25.8291 11.1133 25.7223 10.9757 25.589 10.867C25.3213 10.6237 24.9707 10.492 24.609 10.499C24.3463 10.4965 24.0874 10.5611 23.8566 10.6865C23.6258 10.812 23.4308 10.9942 23.29 11.216L22.395 10.652C22.638 10.3038 22.9661 10.0236 23.3481 9.83805C23.73 9.65251 24.1531 9.5678 24.577 9.592ZM23.29 13.52C23.2876 13.6495 23.3171 13.7776 23.3758 13.8931C23.4346 14.0085 23.5209 14.1077 23.627 14.182C23.85 14.358 24.127 14.451 24.412 14.445C24.841 14.444 25.252 14.275 25.558 13.973C25.863 13.687 26.036 13.288 26.036 12.87C25.651 12.5963 25.1833 12.4642 24.712 12.496C24.3461 12.4816 23.9852 12.5846 23.682 12.79C23.5619 12.8703 23.4634 12.9789 23.3951 13.1062C23.3267 13.2334 23.2906 13.3755 23.29 13.52ZM32.576 9.77L29.186 17.56H28.138L29.419 14.832L27.195 9.77H28.298L29.91 13.655L31.479 9.77H32.576Z" fill="var(--fill-0, #5F6368)"/>
<path id="Vector_4" d="M13.986 11.284C13.986 10.976 13.962 10.668 13.913 10.364H9.623V12.111H12.074C12.0241 12.3886 11.9187 12.6534 11.764 12.8893C11.6094 13.1252 11.4087 13.3275 11.174 13.484V14.618H12.638C13.0831 14.1873 13.4331 13.6681 13.6653 13.0938C13.8974 12.5196 14.0067 11.9031 13.986 11.284Z" fill="var(--fill-0, #4285F4)"/>
<path id="Vector_5" d="M9.629 15.721C10.7353 15.7514 11.8117 15.3591 12.639 14.624L11.173 13.484C10.8208 13.7098 10.4216 13.8524 10.006 13.9008C9.5904 13.9492 9.16921 13.9022 8.77448 13.7634C8.37976 13.6245 8.02189 13.3975 7.72809 13.0996C7.43429 12.8016 7.2123 12.4406 7.079 12.044H5.577V13.214C5.95285 13.967 6.53105 14.6005 7.24676 15.0433C7.96246 15.4861 8.78738 15.7208 9.629 15.721Z" fill="var(--fill-0, #34A853)"/>
<path id="Vector_6" d="M7.079 12.05C6.88879 11.4873 6.88879 10.8777 7.079 10.315V9.145H5.577C5.25679 9.77646 5.08991 10.4745 5.08991 11.1825C5.08991 11.8905 5.25679 12.5885 5.577 13.22L7.079 12.05Z" fill="var(--fill-0, #FBBC04)"/>
<path id="Vector_7" d="M9.629 8.44C10.276 8.42818 10.9015 8.67261 11.369 9.12L12.669 7.827C11.8401 7.04901 10.7406 6.62466 9.604 6.644C8.76737 6.6482 7.94824 6.884 7.23743 7.32528C6.52663 7.76656 5.95191 8.39606 5.577 9.144L7.079 10.315C7.25462 9.77508 7.59509 9.30381 8.05251 8.96747C8.50993 8.63113 9.06128 8.44666 9.629 8.44Z" fill="var(--fill-0, #EA4335)"/>
</g>
<defs>
<clipPath id="clip0_12120_50550">
<rect width="38" height="24" fill="white"/>
</clipPath>
</defs>
</svg>
