<svg preserveAspectRatio="none" width="100%" height="100%" overflow="visible" style="display: block;" viewBox="0 0 7.49635 9.21397" fill="none" xmlns="http://www.w3.org/2000/svg">
<g id="Group">
<path id="Vector" d="M5.10168 1.47671C5.41967 1.07922 5.63529 0.545388 5.57844 0C5.11323 0.023102 4.54564 0.306894 4.21678 0.704836C3.92166 1.04548 3.66052 1.60151 3.72847 2.12402C4.25075 2.16932 4.77259 1.86311 5.10168 1.47671Z" fill="var(--fill-0, black)"/>
<path id="Vector_2" d="M5.57255 2.22617C4.81381 2.18087 4.16922 2.6565 3.80706 2.6565C3.44468 2.6565 2.89 2.24882 2.29003 2.25992C1.50932 2.27124 0.785006 2.7129 0.388649 3.41501C-0.426262 4.81925 0.173484 6.90296 0.966198 8.04673C1.351 8.61296 1.81486 9.2358 2.42593 9.21338C3.00347 9.19073 3.22974 8.83967 3.9314 8.83967C4.63284 8.83967 4.83668 9.21338 5.44798 9.20206C6.0817 9.19073 6.47806 8.63583 6.86286 8.06961C7.30452 7.42411 7.48503 6.80126 7.49635 6.76729C7.48503 6.75597 6.27421 6.29144 6.26289 4.89852C6.25157 3.7321 7.21369 3.1772 7.25899 3.143C6.71564 2.33941 5.86676 2.24882 5.57232 2.22617" fill="var(--fill-0, black)"/>
</g>
</svg>
