<svg preserveAspectRatio="none" width="100%" height="100%" overflow="visible" style="display: block;" viewBox="0 0 35.8889 22.4001" fill="none" xmlns="http://www.w3.org/2000/svg">
<path id="Vector" d="M33.3316 0L33.7103 0.000679474C33.8127 0.00135894 33.9153 0.00249139 34.0183 0.00520927C34.1979 0.010192 34.4077 0.0199311 34.6033 0.055037C34.7732 0.0856132 34.9159 0.132044 35.0527 0.201802C35.3265 0.340994 35.5489 0.563642 35.6878 0.83756C35.7571 0.973454 35.8033 1.11524 35.8339 1.28669C35.8687 1.48011 35.8785 1.69052 35.8832 1.87103C35.8862 1.97295 35.8875 2.07487 35.8878 2.17906C35.8889 2.30521 35.8889 2.43114 35.8889 2.55752V19.8428C35.8889 19.9692 35.8889 20.0951 35.888 20.2237C35.8875 20.3257 35.8862 20.4276 35.8835 20.5295C35.8785 20.7098 35.8687 20.9202 35.8334 21.1159C35.8077 21.2715 35.7585 21.4224 35.6873 21.5632C35.5481 21.8372 35.3254 22.0599 35.0513 22.199C34.9155 22.2683 34.7732 22.3147 34.6049 22.345C34.4054 22.3806 34.1866 22.3903 34.0219 22.3949C33.9184 22.3971 33.8154 22.3987 33.7096 22.3992C33.5839 22.4001 33.4575 22.4001 33.3316 22.4001H2.55231C2.42774 22.4001 2.30318 22.4001 2.17634 22.3992C2.07441 22.3987 1.97249 22.3974 1.87058 22.3951C1.70207 22.3906 1.48328 22.3806 1.28533 22.3453C1.12882 22.3192 0.977165 22.2695 0.835521 22.198C0.699654 22.129 0.575645 22.0388 0.468155 21.9308C0.360325 21.8232 0.270269 21.6991 0.201349 21.5632C0.130174 21.4216 0.0808449 21.27 0.055037 21.1136C0.0197046 20.9182 0.00973906 20.7087 0.00520927 20.5297C0.00265053 20.4274 0.00114052 20.3251 0.000679474 20.2228L0 19.9223V2.47825L0.000452947 2.17815C0.000920547 2.07569 0.00243055 1.97324 0.00498274 1.87081C0.00996552 1.69143 0.0197046 1.48192 0.0552635 1.28488C0.0811226 1.12879 0.130452 0.977523 0.201576 0.836201C0.270429 0.70076 0.360119 0.577096 0.468834 0.468608C0.576584 0.360687 0.700724 0.270487 0.836653 0.201349C0.977952 0.130362 1.12913 0.0810394 1.2851 0.055037C1.48102 0.0199311 1.69097 0.010192 1.87081 0.00520927C1.97318 0.00249139 2.07578 0.00135894 2.17747 0.000679474L2.5573 0H33.3316Z" fill="var(--fill-0, white)"/>
</svg>
