<svg preserveAspectRatio="none" width="100%" height="100%" overflow="visible" style="display: block;" viewBox="0 0 17.9607 17.8929" fill="none" xmlns="http://www.w3.org/2000/svg">
<path id="Union" d="M3.8395 0.00613346C4.35691 0.0486608 4.8454 0.264472 5.22426 0.619415C5.45584 0.836478 5.6079 1.09407 5.73207 1.3577C5.85247 1.61339 5.97327 1.9345 6.11293 2.30399L7.02895 4.72684C7.32875 5.5206 7.13609 6.41723 6.53774 7.01883C6.19099 7.36759 6.15739 7.87377 6.402 8.21121C6.8329 8.80555 7.30298 9.36219 7.93618 9.99539C8.56945 10.6287 9.12693 11.0986 9.72133 11.5296C10.0588 11.7738 10.5641 11.7404 10.9127 11.3938C11.5145 10.7953 12.4118 10.6035 13.2057 10.9036L15.6989 11.846C16.0496 11.9786 16.3554 12.0934 16.5993 12.2073C16.8507 12.3248 17.0961 12.4677 17.3073 12.6839C17.6818 13.0673 17.9111 13.5696 17.9547 14.1038C17.9793 14.4049 17.9255 14.6837 17.8493 14.9505C17.7753 15.2091 17.6618 15.515 17.5319 15.8665C17.3536 16.3485 17.2025 16.7943 16.8727 17.1536C16.5699 17.4831 16.0956 17.7537 15.6579 17.847C15.1861 17.9473 14.7847 17.8633 14.3493 17.7845C11.2064 17.2153 7.86603 15.5483 5.10903 12.7913C2.40628 10.0884 0.731534 6.80524 0.123675 3.70926C0.0354965 3.26021 -0.0573382 2.84617 0.0445736 2.35965C0.132143 1.9425 0.381712 1.48599 0.686175 1.18777C1.04533 0.836358 1.50162 0.671641 1.99477 0.477813C2.36244 0.333295 2.68242 0.20667 2.95278 0.124298C3.2313 0.0394931 3.52345 -0.0197584 3.8395 0.00613346ZM3.70864 1.59988C3.67775 1.59739 3.60531 1.5987 3.4186 1.65555C3.22269 1.71526 2.97177 1.81336 2.58071 1.96707C1.97579 2.20484 1.88091 2.25743 1.80532 2.33133C1.72698 2.40819 1.6327 2.58031 1.61 2.68777C1.58721 2.79664 1.59017 2.87286 1.69399 3.40164C2.23879 6.17621 3.7557 9.17527 6.24086 11.6604C8.77474 14.1942 11.8223 15.701 14.6344 16.2102C15.146 16.3029 15.219 16.3041 15.3248 16.2815C15.4378 16.2572 15.617 16.1555 15.695 16.0706C15.7641 15.995 15.8129 15.9013 16.0309 15.3118C16.1693 14.9376 16.2577 14.698 16.3112 14.511C16.3622 14.3324 16.3624 14.2632 16.36 14.2337C16.3466 14.0713 16.2766 13.9186 16.1627 13.802C16.142 13.7809 16.09 13.7352 15.9215 13.6565C15.7453 13.5742 15.5066 13.4841 15.1334 13.343L12.6393 12.3997C12.4325 12.3216 12.1985 12.3718 12.0416 12.5276C11.1906 13.3745 9.81478 13.5733 8.78188 12.8245C8.11619 12.3419 7.49555 11.8165 6.80532 11.1263C6.11509 10.436 5.58971 9.81538 5.10707 9.14969C4.35832 8.1168 4.55706 6.74098 5.40395 5.88992C5.55975 5.73304 5.61001 5.49913 5.53188 5.29227L4.61586 2.86941C4.46719 2.47611 4.37112 2.22468 4.28383 2.03934C4.20046 1.86236 4.15307 1.80857 4.13051 1.78738C4.01525 1.67935 3.86606 1.61288 3.70864 1.59988ZM13.9381 0.452423C16.0745 0.452423 17.7418 2.25814 17.7418 4.40359C17.7416 6.54882 16.0743 8.35379 13.9381 8.35379H10.1842C9.84344 8.35362 9.53987 8.13776 9.42836 7.8157C9.31696 7.49373 9.4215 7.1359 9.6891 6.92508L10.5778 6.22586C10.3 5.68373 10.1355 5.06655 10.1354 4.40359C10.1354 2.25837 11.8022 0.452889 13.9381 0.452423ZM13.9381 2.05203C12.7572 2.05251 11.735 3.06891 11.735 4.40359C11.7351 4.97615 11.937 5.49639 12.2663 5.91141C12.3985 6.07806 12.459 6.29091 12.4342 6.50223C12.4238 6.5905 12.3987 6.67551 12.361 6.75418H13.9381C15.1192 6.75418 16.142 5.7383 16.1422 4.40359C16.1422 3.06864 15.1194 2.05203 13.9381 2.05203Z" fill="var(--fill-0, white)" fill-opacity="0.9"/>
</svg>
