<svg preserveAspectRatio="none" width="100%" height="100%" overflow="visible" style="display: block;" viewBox="0 0 32 32" fill="none" xmlns="http://www.w3.org/2000/svg">
<g id="&#229;&#155;&#190;&#229;&#177;&#130;_1" clip-path="url(#clip0_12120_50645)">
<path id="Vector" d="M16.006 0C9.32544 0 7.37004 0 6.99105 0.0443492C5.8956 0.0918279 4.82196 0.366415 3.83823 0.850699C3.15698 1.1831 2.54 1.63356 2.01587 2.18118C0.990964 3.24324 0.336269 4.60778 0.149175 6.07182C0.0403175 6.82172 0 6.97493 0 10.793V15.994C0 22.6665 0 24.6179 0.0403175 24.9968C0.0874674 26.0683 0.347893 27.1196 0.80635 28.0892C1.23359 28.9645 1.84555 29.7368 2.60006 30.3528C3.35456 30.9688 4.23366 31.4138 5.17677 31.6573C5.93806 31.8407 6.71631 31.9447 7.49905 31.9677C7.90223 31.9677 11.934 31.996 15.9657 31.996C19.9975 31.996 24.0292 31.996 24.4324 31.9718C25.2478 31.9553 26.0589 31.8498 26.8515 31.6573C27.7956 31.4147 28.6754 30.969 29.4295 30.3514C30.1837 29.7337 30.794 28.9589 31.2178 28.0811C31.67 27.1313 31.9264 26.1002 31.9718 25.0493C31.996 24.7751 32.004 20.3765 32.004 15.9899C32.004 11.6034 32.004 7.2128 31.9718 6.93864C31.9274 5.87534 31.6653 4.83244 31.2017 3.87451C30.8633 3.1768 30.4001 2.54689 29.8349 2.01587C28.7664 0.99339 27.3989 0.339316 25.9322 0.149175C25.1863 0.0443493 25.0372 0 21.211 0H16.006Z" fill="url(#paint0_radial_12120_50645)"/>
<path id="Vector_2" d="M16.006 0C9.32544 0 7.37004 0 6.99105 0.0443492C5.8956 0.0918279 4.82196 0.366415 3.83823 0.850699C3.15698 1.1831 2.54 1.63356 2.01587 2.18118C0.990964 3.24324 0.336269 4.60778 0.149175 6.07182C0.0403175 6.82172 0 6.97493 0 10.793V15.994C0 22.6665 0 24.6179 0.0403175 24.9968C0.0874674 26.0683 0.347893 27.1196 0.80635 28.0892C1.23359 28.9645 1.84555 29.7368 2.60006 30.3528C3.35456 30.9688 4.23366 31.4138 5.17677 31.6573C5.93806 31.8407 6.71631 31.9447 7.49905 31.9677C7.90223 31.9677 11.934 31.996 15.9657 31.996C19.9975 31.996 24.0292 31.996 24.4324 31.9718C25.2478 31.9553 26.0589 31.8498 26.8515 31.6573C27.7956 31.4147 28.6754 30.969 29.4295 30.3514C30.1837 29.7337 30.794 28.9589 31.2178 28.0811C31.67 27.1313 31.9264 26.1002 31.9718 25.0493C31.996 24.7751 32.004 20.3765 32.004 15.9899C32.004 11.6034 32.004 7.2128 31.9718 6.93864C31.9274 5.87534 31.6653 4.83244 31.2017 3.87451C30.8633 3.1768 30.4001 2.54689 29.8349 2.01587C28.7664 0.99339 27.3989 0.339316 25.9322 0.149175C25.1863 0.0443493 25.0372 0 21.211 0H16.006Z" fill="url(#paint1_radial_12120_50645)"/>
<path id="Vector_3" d="M15.998 4.18899C12.7726 4.18899 12.3694 4.18899 11.1276 4.26156C10.1478 4.2792 9.17823 4.46465 8.26106 4.80988C7.4724 5.10392 6.75804 5.56777 6.16858 6.16858C5.56846 6.76019 5.10237 7.47377 4.80181 8.26106C4.45894 9.18029 4.27357 10.1508 4.2535 11.1317C4.19705 12.3896 4.18496 12.7927 4.18496 16.002C4.18496 19.2113 4.18496 19.6306 4.2535 20.8724C4.27415 21.8523 4.46092 22.8215 4.80585 23.7389C5.10776 24.524 5.57086 25.2371 6.16529 25.8323C6.75972 26.4274 7.47228 26.8913 8.25702 27.1942C9.17571 27.539 10.1465 27.7244 11.1276 27.7425C12.3855 27.7989 12.7887 27.815 15.998 27.815C19.2073 27.815 19.6266 27.815 20.8683 27.7425C21.8481 27.7244 22.8176 27.539 23.7349 27.1942C24.5195 26.8903 25.2321 26.426 25.827 25.8311C26.422 25.2361 26.8862 24.5235 27.1901 23.7389C27.5315 22.8207 27.7168 21.8518 27.7384 20.8724C27.7949 19.6104 27.811 19.2113 27.811 16.002C27.811 12.7927 27.811 12.3734 27.7384 11.1317C27.7168 10.1522 27.5315 9.18334 27.1901 8.26509C26.8882 7.47935 26.4246 6.76577 25.8294 6.17057C25.2342 5.57536 24.5206 5.11179 23.7349 4.80988C22.8162 4.46505 21.8454 4.27961 20.8643 4.26156C19.6064 4.20108 19.2032 4.18899 15.994 4.18899H15.998ZM14.9376 6.31775H15.998C19.1508 6.31775 19.5258 6.31775 20.7716 6.38629C21.5206 6.39176 22.2629 6.52821 22.9648 6.78947C23.4745 6.98549 23.9374 7.2863 24.3235 7.67243C24.7097 8.05857 25.0105 8.52144 25.2065 9.03112C25.4657 9.73367 25.6021 10.4756 25.6097 11.2244C25.6661 12.4662 25.6782 12.8371 25.6782 15.994C25.6782 19.1508 25.6782 19.5217 25.6097 20.7675C25.6016 21.5163 25.4652 22.2581 25.2065 22.9608C25.0118 23.4687 24.7133 23.9304 24.3301 24.3163C23.9469 24.7023 23.4874 25.0041 22.981 25.2025C22.279 25.4637 21.5367 25.6002 20.7877 25.6056C19.5419 25.6621 19.175 25.6742 16.0141 25.6742C12.8532 25.6742 12.4863 25.6742 11.2405 25.6056C10.4917 25.5981 9.7498 25.4617 9.04725 25.2025C8.52347 25.0181 8.04899 24.7161 7.66032 24.3195C7.27361 23.9441 6.97602 23.4867 6.78947 22.981C6.53056 22.2797 6.39418 21.5392 6.38629 20.7917C6.32985 19.5459 6.31775 19.179 6.31775 16.0141C6.31775 12.8492 6.31775 12.4904 6.38629 11.2446C6.39388 10.4957 6.53026 9.75383 6.78947 9.05128C6.96894 8.52683 7.26695 8.05084 7.66032 7.66032C8.04088 7.26735 8.50536 6.96551 9.01902 6.77737C9.72101 6.51611 10.4633 6.37967 11.2123 6.3742C12.3009 6.32178 12.7242 6.30969 14.9255 6.30566L14.9376 6.31775ZM22.3036 8.27718C22.023 8.27718 21.7486 8.36042 21.5152 8.51636C21.2818 8.6723 21.0999 8.89394 20.9925 9.15326C20.8851 9.41258 20.857 9.69793 20.9117 9.97323C20.9665 10.2485 21.1017 10.5014 21.3001 10.6999C21.4986 10.8983 21.7515 11.0335 22.0268 11.0883C22.3021 11.143 22.5874 11.1149 22.8467 11.0075C23.1061 10.9001 23.3277 10.7182 23.4836 10.4848C23.6396 10.2514 23.7228 9.97704 23.7228 9.69636C23.7218 9.3203 23.5719 8.95994 23.306 8.69402C23.0401 8.42811 22.6797 8.27825 22.3036 8.27718ZM15.998 9.93423C14.8019 9.93423 13.6326 10.2889 12.6381 10.9534C11.6436 11.618 10.8684 12.5625 10.4107 13.6675C9.95298 14.7726 9.83321 15.9886 10.0666 17.1617C10.2999 18.3348 10.8759 19.4124 11.7217 20.2582C12.5674 21.1039 13.645 21.6799 14.8182 21.9133C15.9913 22.1466 17.2072 22.0269 18.3123 21.5691C19.4174 21.1114 20.3619 20.3363 21.0264 19.3417C21.6909 18.3472 22.0456 17.178 22.0456 15.9819C22.0403 14.3796 21.4014 12.8444 20.2684 11.7114C19.1354 10.5784 17.6003 9.93955 15.998 9.93423ZM15.998 12.063C16.777 12.063 17.5386 12.294 18.1864 12.7268C18.8342 13.1597 19.339 13.7749 19.6372 14.4946C19.9353 15.2144 20.0133 16.0064 19.8613 16.7705C19.7093 17.5346 19.3342 18.2364 18.7833 18.7873C18.2324 19.3382 17.5305 19.7134 16.7664 19.8653C16.0024 20.0173 15.2103 19.9393 14.4906 19.6412C13.7708 19.3431 13.1556 18.8382 12.7228 18.1904C12.29 17.5426 12.059 16.7811 12.059 16.002C12.059 14.9573 12.474 13.9554 13.2127 13.2167C13.9514 12.478 14.9533 12.063 15.998 12.063Z" fill="var(--fill-0, white)"/>
</g>
<defs>
<radialGradient id="paint0_radial_12120_50645" cx="0" cy="0" r="1" gradientUnits="userSpaceOnUse" gradientTransform="translate(8.60021 35.0286) rotate(-90) scale(31.2786 29.0992)">
<stop stop-color="#FFDD55"/>
<stop offset="0.1" stop-color="#FFDD55"/>
<stop offset="0.5" stop-color="#FF543E"/>
<stop offset="1" stop-color="#C837AB"/>
</radialGradient>
<radialGradient id="paint1_radial_12120_50645" cx="0" cy="0" r="1" gradientTransform="matrix(2.7453 13.7101 56.5253 -11.3179 -6.78672 0.768693)" gradientUnits="userSpaceOnUse">
<stop stop-color="#3771C8"/>
<stop offset="0.13" stop-color="#3771C8"/>
<stop offset="1" stop-color="#6600FF" stop-opacity="0"/>
</radialGradient>
<clipPath id="clip0_12120_50645">
<rect width="32" height="32" fill="white"/>
</clipPath>
</defs>
</svg>
