<svg preserveAspectRatio="none" width="100%" height="100%" overflow="visible" style="display: block;" viewBox="0 0 32 32" fill="none" xmlns="http://www.w3.org/2000/svg">
<g id="&#229;&#155;&#190;&#229;&#177;&#130;_1" clip-path="url(#clip0_12120_50530)">
<path id="Vector" d="M31.3428 8.30137C31.1578 7.62648 30.8003 7.01137 30.3054 6.51653C29.8106 6.0217 29.1955 5.66418 28.5206 5.47915C26.0169 4.79375 15.998 4.79375 15.998 4.79375C15.998 4.79375 5.98312 4.79375 3.49956 5.45093C2.8254 5.64523 2.21216 6.00878 1.71817 6.507C1.22418 7.00522 0.865876 7.62155 0.677334 8.29734C0 10.8091 0 16.002 0 16.002C0 16.002 0 21.2191 0.657175 23.6986C0.840011 24.3746 1.19679 24.9909 1.69196 25.4861C2.18713 25.9812 2.80341 26.338 3.4794 26.5208C6.01134 27.2062 15.998 27.2062 15.998 27.2062C15.998 27.2062 26.0169 27.2062 28.5206 26.5491C29.1955 26.364 29.8106 26.0065 30.3054 25.5117C30.8003 25.0169 31.1578 24.4017 31.3428 23.7268C32 21.2231 32 16.0302 32 16.0302C32 16.0302 32.0282 10.8132 31.3428 8.3054V8.30137Z" fill="var(--fill-0, #FF0000)"/>
<path id="Vector_2" d="M12.8089 20.7958L21.1385 16.002L12.8089 11.2042V20.7958Z" fill="var(--fill-0, white)"/>
</g>
<defs>
<clipPath id="clip0_12120_50530">
<rect width="32" height="32" fill="white"/>
</clipPath>
</defs>
</svg>
