<svg preserveAspectRatio="none" width="100%" height="100%" overflow="visible" style="display: block;" viewBox="0 0 32 32" fill="none" xmlns="http://www.w3.org/2000/svg">
<g id="&#229;&#155;&#190;&#229;&#177;&#130;_1" clip-path="url(#clip0_12120_50641)">
<path id="Vector" fill-rule="evenodd" clip-rule="evenodd" d="M32 16.002C32.0002 12.9439 31.1241 9.94971 29.4754 7.37404C27.8268 4.79837 25.4746 2.74906 22.6973 1.46875C19.9201 0.188445 16.8341 -0.269239 13.8049 0.149889C10.7756 0.569018 7.92982 1.84741 5.60455 3.83369C3.27928 5.81998 1.57187 8.43097 0.684473 11.3575C-0.20292 14.2841 -0.233129 17.4037 0.597423 20.3468C1.42798 23.29 3.0845 25.9336 5.37087 27.9646C7.65724 29.9955 10.4777 31.3288 13.4983 31.8065V20.6264H9.43833V16.002H13.4983V12.4742C13.4983 8.44249 15.8891 6.24921 19.5459 6.24921C20.7466 6.26565 21.9445 6.36941 23.1301 6.55966V10.4826H21.1143C19.1307 10.4826 18.5098 11.7163 18.5098 12.9822V15.9819H22.9447L22.227 20.6264H18.4977V31.8065C22.2621 31.2111 25.6905 29.2917 28.1658 26.3936C30.6411 23.4956 32.0007 19.8092 32 15.998V16.002Z" fill="var(--fill-0, #1977F3)"/>
<path id="Vector_2" fill-rule="evenodd" clip-rule="evenodd" d="M22.227 20.6264L22.9366 15.998H18.5017V12.9984C18.5017 11.7324 19.1186 10.4987 21.1062 10.4987H23.1221V6.55966C21.9378 6.36955 20.7412 6.26579 19.5419 6.24921C15.8851 6.24921 13.4943 8.46264 13.4943 12.4742V16.002H9.43833V20.6264H13.5023V31.8065C14.3292 31.9364 15.165 32.0011 16.002 32C16.8389 31.9989 17.6746 31.9342 18.5017 31.8065V20.6264H22.227Z" fill="var(--fill-0, #FEFEFE)"/>
</g>
<defs>
<clipPath id="clip0_12120_50641">
<rect width="32" height="32" fill="white"/>
</clipPath>
</defs>
</svg>
