<svg preserveAspectRatio="none" width="100%" height="100%" overflow="visible" style="display: block;" viewBox="0 0 32 32" fill="none" xmlns="http://www.w3.org/2000/svg">
<g id="&#229;&#155;&#190;&#229;&#177;&#130;_1" clip-path="url(#clip0_12120_50618)">
<path id="Vector" d="M16.002 0C12.8373 1.0794e-05 9.74373 0.938374 7.11235 2.69645C4.48096 4.45452 2.42995 6.95335 1.21863 9.877C0.00731286 12.8006 -0.309913 16.0178 0.307061 19.1217C0.924036 22.2257 2.44751 25.077 4.68485 27.3151L1.64088 30.3631C1.50516 30.4965 1.41238 30.6674 1.37442 30.8539C1.33646 31.0404 1.35506 31.234 1.42783 31.4098C1.50059 31.5857 1.62422 31.7358 1.78285 31.841C1.94148 31.9461 2.1279 32.0015 2.31821 32H16.002C20.2014 31.9333 24.2064 30.2183 27.1526 27.225C30.0987 24.2316 31.75 20.2 31.75 16C31.75 11.8 30.0987 7.76835 27.1526 4.77502C24.2064 1.78169 20.2014 0.0666647 16.002 0Z" fill="var(--fill-0, #FF4500)"/>
<path id="Vector_2" d="M25.0694 19.5862C25.8086 19.5862 26.5312 19.367 27.1458 18.9564C27.7604 18.5457 28.2395 17.962 28.5224 17.2791C28.8052 16.5961 28.8793 15.8447 28.735 15.1197C28.5908 14.3947 28.2349 13.7287 27.7122 13.206C27.1895 12.6834 26.5235 12.3274 25.7986 12.1832C25.0736 12.039 24.3221 12.113 23.6392 12.3959C22.9562 12.6787 22.3725 13.1578 21.9619 13.7724C21.5512 14.387 21.332 15.1096 21.332 15.8488C21.332 16.84 21.7258 17.7907 22.4267 18.4916C23.1276 19.1925 24.0782 19.5862 25.0694 19.5862Z" fill="url(#paint0_radial_12120_50618)"/>
<path id="Vector_3" d="M6.93058 19.5862C7.66977 19.5862 8.39237 19.367 9.00698 18.9564C9.6216 18.5457 10.1006 17.962 10.3835 17.2791C10.6664 16.5961 10.7404 15.8447 10.5962 15.1197C10.452 14.3947 10.096 13.7287 9.57334 13.206C9.05065 12.6834 8.38471 12.3274 7.65972 12.1832C6.93472 12.039 6.18325 12.113 5.50032 12.3959C4.8174 12.6787 4.23369 13.1578 3.82302 13.7724C3.41234 14.387 3.19315 15.1096 3.19315 15.8488C3.19315 16.84 3.58691 17.7907 4.28781 18.4916C4.98872 19.1925 5.93935 19.5862 6.93058 19.5862Z" fill="url(#paint1_radial_12120_50618)"/>
<path id="Vector_4" d="M16.0101 27.0571C21.9005 27.0571 26.6741 23.4769 26.6741 19.0581C26.6741 14.6393 21.9005 11.0591 16.0101 11.0591C10.1197 11.0591 5.34207 14.6393 5.34207 19.0581C5.34207 23.4769 10.1197 27.0571 16.0101 27.0571Z" fill="url(#paint2_radial_12120_50618)"/>
<path id="Vector_5" d="M12.8573 18.292C12.7927 19.6387 11.8937 20.1265 10.8414 20.1265C9.78909 20.1265 8.99887 19.3967 9.05934 18.0501C9.11982 16.7035 10.0229 15.8286 11.0752 15.8286C12.1275 15.8286 12.9016 16.9334 12.8573 18.2961V18.292Z" fill="url(#paint3_radial_12120_50618)"/>
<path id="Vector_6" d="M19.1629 18.292C19.2234 19.6387 20.1225 20.1265 21.1788 20.1265C22.2351 20.1265 23.0253 19.3967 22.9648 18.0501C22.9044 16.7035 22.0013 15.8286 20.949 15.8286C19.8967 15.8286 19.1024 16.9334 19.1629 18.2961V18.292Z" fill="url(#paint4_radial_12120_50618)"/>
<path id="Vector_7" d="M11.7969 17.6913C11.8876 17.7011 11.9792 17.6831 12.0595 17.6398C12.1399 17.5965 12.2052 17.5299 12.2469 17.4487C12.2886 17.3676 12.3048 17.2756 12.2932 17.1851C12.2816 17.0946 12.2429 17.0097 12.1821 16.9416C12.1213 16.8735 12.0413 16.8255 11.9527 16.8038C11.8641 16.7821 11.7709 16.7877 11.6855 16.82C11.6002 16.8523 11.5266 16.9097 11.4745 16.9846C11.4224 17.0595 11.3943 17.1485 11.3937 17.2398C11.3892 17.3526 11.4288 17.4628 11.504 17.5471C11.5792 17.6313 11.6843 17.683 11.7969 17.6913Z" fill="var(--fill-0, #FFC49C)"/>
<path id="Vector_8" d="M21.6626 17.6913C21.7533 17.7011 21.8449 17.6831 21.9252 17.6398C22.0056 17.5965 22.0709 17.5299 22.1126 17.4487C22.1543 17.3676 22.1704 17.2756 22.1589 17.1851C22.1473 17.0946 22.1086 17.0097 22.0478 16.9416C21.987 16.8735 21.907 16.8255 21.8184 16.8038C21.7297 16.7821 21.6366 16.7877 21.5512 16.82C21.4659 16.8523 21.3923 16.9097 21.3402 16.9846C21.2881 17.0595 21.2599 17.1485 21.2594 17.2398C21.2549 17.3526 21.2945 17.4628 21.3697 17.5471C21.4449 17.6313 21.5499 17.683 21.6626 17.6913Z" fill="var(--fill-0, #FFC49C)"/>
<path id="Vector_9" d="M16.0101 21.1748C14.7769 21.1719 13.5443 21.2311 12.317 21.3521C12.2717 21.3571 12.2281 21.3725 12.1896 21.3969C12.1511 21.4214 12.1188 21.4544 12.095 21.4933C12.0713 21.5323 12.0567 21.5761 12.0526 21.6215C12.0484 21.667 12.0548 21.7127 12.0711 21.7553C12.3965 22.5309 12.9438 23.193 13.6442 23.6587C14.3446 24.1244 15.167 24.3728 16.0081 24.3728C16.8491 24.3728 17.6715 24.1244 18.3719 23.6587C19.0723 23.193 19.6196 22.5309 19.9451 21.7553C19.9614 21.7127 19.9677 21.667 19.9635 21.6215C19.9594 21.5761 19.9449 21.5323 19.9211 21.4933C19.8974 21.4544 19.865 21.4214 19.8265 21.3969C19.788 21.3725 19.7445 21.3571 19.6991 21.3521C18.4732 21.2311 17.242 21.1719 16.0101 21.1748Z" fill="url(#paint5_radial_12120_50618)"/>
<path id="Vector_10" d="M21.8481 9.97052C22.3721 9.97132 22.8846 9.81664 23.3208 9.52607C23.7569 9.23549 24.097 8.82207 24.2982 8.33813C24.4993 7.85418 24.5523 7.32146 24.4505 6.80737C24.3488 6.29327 24.0968 5.82091 23.7265 5.45006C23.3562 5.07921 22.8843 4.82653 22.3703 4.72399C21.8564 4.62146 21.3236 4.67368 20.8393 4.87405C20.3551 5.07441 19.9412 5.41392 19.6499 5.84961C19.3587 6.2853 19.2032 6.79759 19.2032 7.32166C19.2032 8.02348 19.4817 8.69662 19.9776 9.19326C20.4735 9.6899 21.1462 9.96945 21.8481 9.97052Z" fill="url(#paint6_radial_12120_50618)"/>
<path id="Vector_11" d="M15.9698 11.3978C15.6513 11.3978 15.3973 11.2647 15.3973 11.0591C15.3994 9.91882 15.8533 8.82586 16.6596 8.01956C17.4659 7.21326 18.5589 6.75934 19.6991 6.75721C19.851 6.75721 19.9966 6.81753 20.104 6.9249C20.2113 7.03226 20.2716 7.17788 20.2716 7.32972C20.2716 7.48156 20.2113 7.62718 20.104 7.73455C19.9966 7.84191 19.851 7.90223 19.6991 7.90223C19.2835 7.90064 18.8717 7.98112 18.4873 8.13905C18.1029 8.29699 17.7535 8.52927 17.4591 8.82257C17.1646 9.11587 16.931 9.46441 16.7716 9.84821C16.6122 10.232 16.5302 10.6435 16.5302 11.0591C16.5302 11.2607 16.2721 11.3937 15.9577 11.3937L15.9698 11.3978Z" fill="url(#paint7_radial_12120_50618)"/>
<path id="Vector_12" d="M9.30528 18.1711C9.36576 16.9011 10.2084 16.0746 11.1881 16.0746C12.1678 16.0746 12.829 17.018 12.8573 18.1953C12.8814 16.8809 12.0993 15.8286 11.0712 15.8286C10.0431 15.8286 9.12788 16.7237 9.05531 18.0784C8.98274 19.433 9.79312 20.1265 10.8373 20.1265H10.9139C9.96245 20.1023 9.24077 19.4169 9.30125 18.1711H9.30528Z" fill="var(--fill-0, #842123)"/>
<path id="Vector_13" d="M22.7108 18.1711C22.6544 16.9011 21.8118 16.0746 20.8321 16.0746C19.8523 16.0746 19.1871 17.018 19.1589 18.1953C19.1347 16.8809 19.9209 15.8286 20.9449 15.8286C21.969 15.8286 22.8923 16.7237 22.9608 18.0784C23.0294 19.433 22.227 20.1265 21.1788 20.1265H21.1022C22.0537 20.1023 22.7754 19.4169 22.7149 18.1711H22.7108Z" fill="var(--fill-0, #842123)"/>
</g>
<defs>
<radialGradient id="paint0_radial_12120_50618" cx="0" cy="0" r="1" gradientUnits="userSpaceOnUse" gradientTransform="translate(23.1725 13.6738) scale(7.66234 6.66569)">
<stop stop-color="#FEFFFF"/>
<stop offset="0.4" stop-color="#FEFFFF"/>
<stop offset="0.51" stop-color="#F9FCFC"/>
<stop offset="0.62" stop-color="#EDF3F5"/>
<stop offset="0.7" stop-color="#DEE9EC"/>
<stop offset="0.72" stop-color="#D8E4E8"/>
<stop offset="0.76" stop-color="#CCD8DF"/>
<stop offset="0.8" stop-color="#C8D5DD"/>
<stop offset="0.83" stop-color="#CCD6DE"/>
<stop offset="0.85" stop-color="#D8DBE2"/>
<stop offset="0.88" stop-color="#EDE3E9"/>
<stop offset="0.9" stop-color="#FFEBEF"/>
<stop offset="1" stop-color="#FFEBEF"/>
</radialGradient>
<radialGradient id="paint1_radial_12120_50618" cx="0" cy="0" r="1" gradientUnits="userSpaceOnUse" gradientTransform="translate(4.99796 1.92919) scale(7.66234 6.66569)">
<stop stop-color="#FEFFFF"/>
<stop offset="0.4" stop-color="#FEFFFF"/>
<stop offset="0.51" stop-color="#F9FCFC"/>
<stop offset="0.62" stop-color="#EDF3F5"/>
<stop offset="0.7" stop-color="#DEE9EC"/>
<stop offset="0.72" stop-color="#D8E4E8"/>
<stop offset="0.76" stop-color="#CCD8DF"/>
<stop offset="0.8" stop-color="#C8D5DD"/>
<stop offset="0.83" stop-color="#CCD6DE"/>
<stop offset="0.85" stop-color="#D8DBE2"/>
<stop offset="0.88" stop-color="#EDE3E9"/>
<stop offset="0.9" stop-color="#FFEBEF"/>
<stop offset="1" stop-color="#FFEBEF"/>
</radialGradient>
<radialGradient id="paint2_radial_12120_50618" cx="0" cy="0" r="1" gradientUnits="userSpaceOnUse" gradientTransform="translate(16.6092 11.989) scale(23.1116 16.1786)">
<stop stop-color="#FEFFFF"/>
<stop offset="0.4" stop-color="#FEFFFF"/>
<stop offset="0.51" stop-color="#F9FCFC"/>
<stop offset="0.62" stop-color="#EDF3F5"/>
<stop offset="0.7" stop-color="#DEE9EC"/>
<stop offset="0.72" stop-color="#D8E4E8"/>
<stop offset="0.76" stop-color="#CCD8DF"/>
<stop offset="0.8" stop-color="#C8D5DD"/>
<stop offset="0.83" stop-color="#CCD6DE"/>
<stop offset="0.85" stop-color="#D8DBE2"/>
<stop offset="0.88" stop-color="#EDE3E9"/>
<stop offset="0.9" stop-color="#FFEBEF"/>
<stop offset="1" stop-color="#FFEBEF"/>
</radialGradient>
<radialGradient id="paint3_radial_12120_50618" cx="0" cy="0" r="1" gradientUnits="userSpaceOnUse" gradientTransform="translate(12.9722 18.5964) scale(2.06587 2.99357)">
<stop stop-color="#FF6600"/>
<stop offset="0.5" stop-color="#FF4500"/>
<stop offset="0.7" stop-color="#FC4301"/>
<stop offset="0.82" stop-color="#F43F07"/>
<stop offset="0.92" stop-color="#E53812"/>
<stop offset="1" stop-color="#D4301F"/>
</radialGradient>
<radialGradient id="paint4_radial_12120_50618" cx="0" cy="0" r="1" gradientUnits="userSpaceOnUse" gradientTransform="translate(18.9415 19.2496) rotate(180) scale(2.06587 2.99357)">
<stop stop-color="#FF6600"/>
<stop offset="0.5" stop-color="#FF4500"/>
<stop offset="0.7" stop-color="#FC4301"/>
<stop offset="0.82" stop-color="#F43F07"/>
<stop offset="0.92" stop-color="#E53812"/>
<stop offset="1" stop-color="#D4301F"/>
</radialGradient>
<radialGradient id="paint5_radial_12120_50618" cx="0" cy="0" r="1" gradientUnits="userSpaceOnUse" gradientTransform="translate(15.0958 24.813) scale(6.80842 4.49338)">
<stop stop-color="#172E35"/>
<stop offset="0.29" stop-color="#0E1C21"/>
<stop offset="0.73" stop-color="#030708"/>
<stop offset="1"/>
</radialGradient>
<radialGradient id="paint6_radial_12120_50618" cx="0" cy="0" r="1" gradientUnits="userSpaceOnUse" gradientTransform="translate(20.4511 4.40747) scale(5.97747 5.85773)">
<stop stop-color="#FEFFFF"/>
<stop offset="0.4" stop-color="#FEFFFF"/>
<stop offset="0.51" stop-color="#F9FCFC"/>
<stop offset="0.62" stop-color="#EDF3F5"/>
<stop offset="0.7" stop-color="#DEE9EC"/>
<stop offset="0.72" stop-color="#D8E4E8"/>
<stop offset="0.76" stop-color="#CCD8DF"/>
<stop offset="0.8" stop-color="#C8D5DD"/>
<stop offset="0.83" stop-color="#CCD6DE"/>
<stop offset="0.85" stop-color="#D8DBE2"/>
<stop offset="0.88" stop-color="#EDE3E9"/>
<stop offset="0.9" stop-color="#FFEBEF"/>
<stop offset="1" stop-color="#FFEBEF"/>
</radialGradient>
<radialGradient id="paint7_radial_12120_50618" cx="0" cy="0" r="1" gradientUnits="userSpaceOnUse" gradientTransform="translate(18.3475 10.171) scale(4.89979)">
<stop stop-color="#7A9299"/>
<stop offset="0.48" stop-color="#7A9299"/>
<stop offset="0.67" stop-color="#172E35"/>
<stop offset="0.75"/>
<stop offset="0.82" stop-color="#172E35"/>
<stop offset="1" stop-color="#172E35"/>
</radialGradient>
<clipPath id="clip0_12120_50618">
<rect width="32" height="32" fill="white"/>
</clipPath>
</defs>
</svg>
