<svg xmlns="http://www.w3.org/2000/svg" xml:space="preserve" xmlns:xlink="http://www.w3.org/1999/xlink" width="984" height="984" viewBox="0 0 984 984">
<g fill="#000000">
<g transform="translate(264,48) scale(4.12)"><rect width="6" height="6"></rect></g>
<g transform="translate(480,48) scale(4.12)"><rect width="6" height="6"></rect></g>
<g transform="translate(528,48) scale(4.12)"><rect width="6" height="6"></rect></g>
<g transform="translate(552,48) scale(4.12)"><rect width="6" height="6"></rect></g>
<g transform="translate(576,48) scale(4.12)"><rect width="6" height="6"></rect></g>
<g transform="translate(624,48) scale(4.12)"><rect width="6" height="6"></rect></g>
<g transform="translate(648,48) scale(4.12)"><rect width="6" height="6"></rect></g>
<g transform="translate(720,48) scale(4.12)"><rect width="6" height="6"></rect></g>
<g transform="translate(360,72) scale(4.12)"><rect width="6" height="6"></rect></g>
<g transform="translate(384,72) scale(4.12)"><rect width="6" height="6"></rect></g>
<g transform="translate(408,72) scale(4.12)"><rect width="6" height="6"></rect></g>
<g transform="translate(432,72) scale(4.12)"><rect width="6" height="6"></rect></g>
<g transform="translate(456,72) scale(4.12)"><rect width="6" height="6"></rect></g>
<g transform="translate(480,72) scale(4.12)"><rect width="6" height="6"></rect></g>
<g transform="translate(504,72) scale(4.12)"><rect width="6" height="6"></rect></g>
<g transform="translate(648,72) scale(4.12)"><rect width="6" height="6"></rect></g>
<g transform="translate(672,72) scale(4.12)"><rect width="6" height="6"></rect></g>
<g transform="translate(696,72) scale(4.12)"><rect width="6" height="6"></rect></g>
<g transform="translate(720,72) scale(4.12)"><rect width="6" height="6"></rect></g>
<g transform="translate(240,96) scale(4.12)"><rect width="6" height="6"></rect></g>
<g transform="translate(360,96) scale(4.12)"><rect width="6" height="6"></rect></g>
<g transform="translate(384,96) scale(4.12)"><rect width="6" height="6"></rect></g>
<g transform="translate(504,96) scale(4.12)"><rect width="6" height="6"></rect></g>
<g transform="translate(528,96) scale(4.12)"><rect width="6" height="6"></rect></g>
<g transform="translate(552,96) scale(4.12)"><rect width="6" height="6"></rect></g>
<g transform="translate(576,96) scale(4.12)"><rect width="6" height="6"></rect></g>
<g transform="translate(624,96) scale(4.12)"><rect width="6" height="6"></rect></g>
<g transform="translate(672,96) scale(4.12)"><rect width="6" height="6"></rect></g>
<g transform="translate(240,120) scale(4.12)"><rect width="6" height="6"></rect></g>
<g transform="translate(264,120) scale(4.12)"><rect width="6" height="6"></rect></g>
<g transform="translate(288,120) scale(4.12)"><rect width="6" height="6"></rect></g>
<g transform="translate(336,120) scale(4.12)"><rect width="6" height="6"></rect></g>
<g transform="translate(360,120) scale(4.12)"><rect width="6" height="6"></rect></g>
<g transform="translate(384,120) scale(4.12)"><rect width="6" height="6"></rect></g>
<g transform="translate(456,120) scale(4.12)"><rect width="6" height="6"></rect></g>
<g transform="translate(480,120) scale(4.12)"><rect width="6" height="6"></rect></g>
<g transform="translate(504,120) scale(4.12)"><rect width="6" height="6"></rect></g>
<g transform="translate(528,120) scale(4.12)"><rect width="6" height="6"></rect></g>
<g transform="translate(576,120) scale(4.12)"><rect width="6" height="6"></rect></g>
<g transform="translate(648,120) scale(4.12)"><rect width="6" height="6"></rect></g>
<g transform="translate(672,120) scale(4.12)"><rect width="6" height="6"></rect></g>
<g transform="translate(696,120) scale(4.12)"><rect width="6" height="6"></rect></g>
<g transform="translate(240,144) scale(4.12)"><rect width="6" height="6"></rect></g>
<g transform="translate(264,144) scale(4.12)"><rect width="6" height="6"></rect></g>
<g transform="translate(336,144) scale(4.12)"><rect width="6" height="6"></rect></g>
<g transform="translate(360,144) scale(4.12)"><rect width="6" height="6"></rect></g>
<g transform="translate(408,144) scale(4.12)"><rect width="6" height="6"></rect></g>
<g transform="translate(480,144) scale(4.12)"><rect width="6" height="6"></rect></g>
<g transform="translate(504,144) scale(4.12)"><rect width="6" height="6"></rect></g>
<g transform="translate(528,144) scale(4.12)"><rect width="6" height="6"></rect></g>
<g transform="translate(576,144) scale(4.12)"><rect width="6" height="6"></rect></g>
<g transform="translate(600,144) scale(4.12)"><rect width="6" height="6"></rect></g>
<g transform="translate(720,144) scale(4.12)"><rect width="6" height="6"></rect></g>
<g transform="translate(240,168) scale(4.12)"><rect width="6" height="6"></rect></g>
<g transform="translate(312,168) scale(4.12)"><rect width="6" height="6"></rect></g>
<g transform="translate(336,168) scale(4.12)"><rect width="6" height="6"></rect></g>
<g transform="translate(384,168) scale(4.12)"><rect width="6" height="6"></rect></g>
<g transform="translate(432,168) scale(4.12)"><rect width="6" height="6"></rect></g>
<g transform="translate(480,168) scale(4.12)"><rect width="6" height="6"></rect></g>
<g transform="translate(576,168) scale(4.12)"><rect width="6" height="6"></rect></g>
<g transform="translate(672,168) scale(4.12)"><rect width="6" height="6"></rect></g>
<g transform="translate(696,168) scale(4.12)"><rect width="6" height="6"></rect></g>
<g transform="translate(720,168) scale(4.12)"><rect width="6" height="6"></rect></g>
<g transform="translate(240,192) scale(4.12)"><rect width="6" height="6"></rect></g>
<g transform="translate(288,192) scale(4.12)"><rect width="6" height="6"></rect></g>
<g transform="translate(336,192) scale(4.12)"><rect width="6" height="6"></rect></g>
<g transform="translate(384,192) scale(4.12)"><rect width="6" height="6"></rect></g>
<g transform="translate(432,192) scale(4.12)"><rect width="6" height="6"></rect></g>
<g transform="translate(480,192) scale(4.12)"><rect width="6" height="6"></rect></g>
<g transform="translate(528,192) scale(4.12)"><rect width="6" height="6"></rect></g>
<g transform="translate(576,192) scale(4.12)"><rect width="6" height="6"></rect></g>
<g transform="translate(624,192) scale(4.12)"><rect width="6" height="6"></rect></g>
<g transform="translate(672,192) scale(4.12)"><rect width="6" height="6"></rect></g>
<g transform="translate(720,192) scale(4.12)"><rect width="6" height="6"></rect></g>
<g transform="translate(240,216) scale(4.12)"><rect width="6" height="6"></rect></g>
<g transform="translate(288,216) scale(4.12)"><rect width="6" height="6"></rect></g>
<g transform="translate(432,216) scale(4.12)"><rect width="6" height="6"></rect></g>
<g transform="translate(600,216) scale(4.12)"><rect width="6" height="6"></rect></g>
<g transform="translate(672,216) scale(4.12)"><rect width="6" height="6"></rect></g>
<g transform="translate(720,216) scale(4.12)"><rect width="6" height="6"></rect></g>
<g transform="translate(48,240) scale(4.12)"><rect width="6" height="6"></rect></g>
<g transform="translate(96,240) scale(4.12)"><rect width="6" height="6"></rect></g>
<g transform="translate(120,240) scale(4.12)"><rect width="6" height="6"></rect></g>
<g transform="translate(144,240) scale(4.12)"><rect width="6" height="6"></rect></g>
<g transform="translate(168,240) scale(4.12)"><rect width="6" height="6"></rect></g>
<g transform="translate(192,240) scale(4.12)"><rect width="6" height="6"></rect></g>
<g transform="translate(264,240) scale(4.12)"><rect width="6" height="6"></rect></g>
<g transform="translate(312,240) scale(4.12)"><rect width="6" height="6"></rect></g>
<g transform="translate(384,240) scale(4.12)"><rect width="6" height="6"></rect></g>
<g transform="translate(480,240) scale(4.12)"><rect width="6" height="6"></rect></g>
<g transform="translate(528,240) scale(4.12)"><rect width="6" height="6"></rect></g>
<g transform="translate(552,240) scale(4.12)"><rect width="6" height="6"></rect></g>
<g transform="translate(576,240) scale(4.12)"><rect width="6" height="6"></rect></g>
<g transform="translate(600,240) scale(4.12)"><rect width="6" height="6"></rect></g>
<g transform="translate(624,240) scale(4.12)"><rect width="6" height="6"></rect></g>
<g transform="translate(648,240) scale(4.12)"><rect width="6" height="6"></rect></g>
<g transform="translate(672,240) scale(4.12)"><rect width="6" height="6"></rect></g>
<g transform="translate(720,240) scale(4.12)"><rect width="6" height="6"></rect></g>
<g transform="translate(768,240) scale(4.12)"><rect width="6" height="6"></rect></g>
<g transform="translate(792,240) scale(4.12)"><rect width="6" height="6"></rect></g>
<g transform="translate(816,240) scale(4.12)"><rect width="6" height="6"></rect></g>
<g transform="translate(840,240) scale(4.12)"><rect width="6" height="6"></rect></g>
<g transform="translate(864,240) scale(4.12)"><rect width="6" height="6"></rect></g>
<g transform="translate(48,264) scale(4.12)"><rect width="6" height="6"></rect></g>
<g transform="translate(72,264) scale(4.12)"><rect width="6" height="6"></rect></g>
<g transform="translate(96,264) scale(4.12)"><rect width="6" height="6"></rect></g>
<g transform="translate(144,264) scale(4.12)"><rect width="6" height="6"></rect></g>
<g transform="translate(168,264) scale(4.12)"><rect width="6" height="6"></rect></g>
<g transform="translate(216,264) scale(4.12)"><rect width="6" height="6"></rect></g>
<g transform="translate(264,264) scale(4.12)"><rect width="6" height="6"></rect></g>
<g transform="translate(288,264) scale(4.12)"><rect width="6" height="6"></rect></g>
<g transform="translate(336,264) scale(4.12)"><rect width="6" height="6"></rect></g>
<g transform="translate(384,264) scale(4.12)"><rect width="6" height="6"></rect></g>
<g transform="translate(408,264) scale(4.12)"><rect width="6" height="6"></rect></g>
<g transform="translate(432,264) scale(4.12)"><rect width="6" height="6"></rect></g>
<g transform="translate(456,264) scale(4.12)"><rect width="6" height="6"></rect></g>
<g transform="translate(552,264) scale(4.12)"><rect width="6" height="6"></rect></g>
<g transform="translate(720,264) scale(4.12)"><rect width="6" height="6"></rect></g>
<g transform="translate(744,264) scale(4.12)"><rect width="6" height="6"></rect></g>
<g transform="translate(792,264) scale(4.12)"><rect width="6" height="6"></rect></g>
<g transform="translate(888,264) scale(4.12)"><rect width="6" height="6"></rect></g>
<g transform="translate(120,288) scale(4.12)"><rect width="6" height="6"></rect></g>
<g transform="translate(144,288) scale(4.12)"><rect width="6" height="6"></rect></g>
<g transform="translate(168,288) scale(4.12)"><rect width="6" height="6"></rect></g>
<g transform="translate(192,288) scale(4.12)"><rect width="6" height="6"></rect></g>
<g transform="translate(240,288) scale(4.12)"><rect width="6" height="6"></rect></g>
<g transform="translate(264,288) scale(4.12)"><rect width="6" height="6"></rect></g>
<g transform="translate(288,288) scale(4.12)"><rect width="6" height="6"></rect></g>
<g transform="translate(360,288) scale(4.12)"><rect width="6" height="6"></rect></g>
<g transform="translate(384,288) scale(4.12)"><rect width="6" height="6"></rect></g>
<g transform="translate(456,288) scale(4.12)"><rect width="6" height="6"></rect></g>
<g transform="translate(528,288) scale(4.12)"><rect width="6" height="6"></rect></g>
<g transform="translate(552,288) scale(4.12)"><rect width="6" height="6"></rect></g>
<g transform="translate(576,288) scale(4.12)"><rect width="6" height="6"></rect></g>
<g transform="translate(600,288) scale(4.12)"><rect width="6" height="6"></rect></g>
<g transform="translate(624,288) scale(4.12)"><rect width="6" height="6"></rect></g>
<g transform="translate(648,288) scale(4.12)"><rect width="6" height="6"></rect></g>
<g transform="translate(672,288) scale(4.12)"><rect width="6" height="6"></rect></g>
<g transform="translate(696,288) scale(4.12)"><rect width="6" height="6"></rect></g>
<g transform="translate(768,288) scale(4.12)"><rect width="6" height="6"></rect></g>
<g transform="translate(840,288) scale(4.12)"><rect width="6" height="6"></rect></g>
<g transform="translate(888,288) scale(4.12)"><rect width="6" height="6"></rect></g>
<g transform="translate(912,288) scale(4.12)"><rect width="6" height="6"></rect></g>
<g transform="translate(168,312) scale(4.12)"><rect width="6" height="6"></rect></g>
<g transform="translate(216,312) scale(4.12)"><rect width="6" height="6"></rect></g>
<g transform="translate(240,312) scale(4.12)"><rect width="6" height="6"></rect></g>
<g transform="translate(312,312) scale(4.12)"><rect width="6" height="6"></rect></g>
<g transform="translate(336,312) scale(4.12)"><rect width="6" height="6"></rect></g>
<g transform="translate(384,312) scale(4.12)"><rect width="6" height="6"></rect></g>
<g transform="translate(432,312) scale(4.12)"><rect width="6" height="6"></rect></g>
<g transform="translate(552,312) scale(4.12)"><rect width="6" height="6"></rect></g>
<g transform="translate(600,312) scale(4.12)"><rect width="6" height="6"></rect></g>
<g transform="translate(672,312) scale(4.12)"><rect width="6" height="6"></rect></g>
<g transform="translate(720,312) scale(4.12)"><rect width="6" height="6"></rect></g>
<g transform="translate(768,312) scale(4.12)"><rect width="6" height="6"></rect></g>
<g transform="translate(816,312) scale(4.12)"><rect width="6" height="6"></rect></g>
<g transform="translate(840,312) scale(4.12)"><rect width="6" height="6"></rect></g>
<g transform="translate(912,312) scale(4.12)"><rect width="6" height="6"></rect></g>
<g transform="translate(48,336) scale(4.12)"><rect width="6" height="6"></rect></g>
<g transform="translate(72,336) scale(4.12)"><rect width="6" height="6"></rect></g>
<g transform="translate(120,336) scale(4.12)"><rect width="6" height="6"></rect></g>
<g transform="translate(144,336) scale(4.12)"><rect width="6" height="6"></rect></g>
<g transform="translate(168,336) scale(4.12)"><rect width="6" height="6"></rect></g>
<g transform="translate(192,336) scale(4.12)"><rect width="6" height="6"></rect></g>
<g transform="translate(216,336) scale(4.12)"><rect width="6" height="6"></rect></g>
<g transform="translate(240,336) scale(4.12)"><rect width="6" height="6"></rect></g>
<g transform="translate(264,336) scale(4.12)"><rect width="6" height="6"></rect></g>
<g transform="translate(288,336) scale(4.12)"><rect width="6" height="6"></rect></g>
<g transform="translate(312,336) scale(4.12)"><rect width="6" height="6"></rect></g>
<g transform="translate(336,336) scale(4.12)"><rect width="6" height="6"></rect></g>
<g transform="translate(432,336) scale(4.12)"><rect width="6" height="6"></rect></g>
<g transform="translate(456,336) scale(4.12)"><rect width="6" height="6"></rect></g>
<g transform="translate(528,336) scale(4.12)"><rect width="6" height="6"></rect></g>
<g transform="translate(576,336) scale(4.12)"><rect width="6" height="6"></rect></g>
<g transform="translate(600,336) scale(4.12)"><rect width="6" height="6"></rect></g>
<g transform="translate(624,336) scale(4.12)"><rect width="6" height="6"></rect></g>
<g transform="translate(648,336) scale(4.12)"><rect width="6" height="6"></rect></g>
<g transform="translate(672,336) scale(4.12)"><rect width="6" height="6"></rect></g>
<g transform="translate(744,336) scale(4.12)"><rect width="6" height="6"></rect></g>
<g transform="translate(768,336) scale(4.12)"><rect width="6" height="6"></rect></g>
<g transform="translate(792,336) scale(4.12)"><rect width="6" height="6"></rect></g>
<g transform="translate(816,336) scale(4.12)"><rect width="6" height="6"></rect></g>
<g transform="translate(864,336) scale(4.12)"><rect width="6" height="6"></rect></g>
<g transform="translate(888,336) scale(4.12)"><rect width="6" height="6"></rect></g>
<g transform="translate(912,336) scale(4.12)"><rect width="6" height="6"></rect></g>
<g transform="translate(72,360) scale(4.12)"><rect width="6" height="6"></rect></g>
<g transform="translate(144,360) scale(4.12)"><rect width="6" height="6"></rect></g>
<g transform="translate(168,360) scale(4.12)"><rect width="6" height="6"></rect></g>
<g transform="translate(216,360) scale(4.12)"><rect width="6" height="6"></rect></g>
<g transform="translate(240,360) scale(4.12)"><rect width="6" height="6"></rect></g>
<g transform="translate(288,360) scale(4.12)"><rect width="6" height="6"></rect></g>
<g transform="translate(312,360) scale(4.12)"><rect width="6" height="6"></rect></g>
<g transform="translate(384,360) scale(4.12)"><rect width="6" height="6"></rect></g>
<g transform="translate(432,360) scale(4.12)"><rect width="6" height="6"></rect></g>
<g transform="translate(456,360) scale(4.12)"><rect width="6" height="6"></rect></g>
<g transform="translate(480,360) scale(4.12)"><rect width="6" height="6"></rect></g>
<g transform="translate(504,360) scale(4.12)"><rect width="6" height="6"></rect></g>
<g transform="translate(528,360) scale(4.12)"><rect width="6" height="6"></rect></g>
<g transform="translate(552,360) scale(4.12)"><rect width="6" height="6"></rect></g>
<g transform="translate(600,360) scale(4.12)"><rect width="6" height="6"></rect></g>
<g transform="translate(624,360) scale(4.12)"><rect width="6" height="6"></rect></g>
<g transform="translate(720,360) scale(4.12)"><rect width="6" height="6"></rect></g>
<g transform="translate(792,360) scale(4.12)"><rect width="6" height="6"></rect></g>
<g transform="translate(48,384) scale(4.12)"><rect width="6" height="6"></rect></g>
<g transform="translate(120,384) scale(4.12)"><rect width="6" height="6"></rect></g>
<g transform="translate(168,384) scale(4.12)"><rect width="6" height="6"></rect></g>
<g transform="translate(192,384) scale(4.12)"><rect width="6" height="6"></rect></g>
<g transform="translate(216,384) scale(4.12)"><rect width="6" height="6"></rect></g>
<g transform="translate(264,384) scale(4.12)"><rect width="6" height="6"></rect></g>
<g transform="translate(312,384) scale(4.12)"><rect width="6" height="6"></rect></g>
<g transform="translate(336,384) scale(4.12)"><rect width="6" height="6"></rect></g>
<g transform="translate(408,384) scale(4.12)"><rect width="6" height="6"></rect></g>
<g transform="translate(456,384) scale(4.12)"><rect width="6" height="6"></rect></g>
<g transform="translate(552,384) scale(4.12)"><rect width="6" height="6"></rect></g>
<g transform="translate(648,384) scale(4.12)"><rect width="6" height="6"></rect></g>
<g transform="translate(696,384) scale(4.12)"><rect width="6" height="6"></rect></g>
<g transform="translate(720,384) scale(4.12)"><rect width="6" height="6"></rect></g>
<g transform="translate(768,384) scale(4.12)"><rect width="6" height="6"></rect></g>
<g transform="translate(792,384) scale(4.12)"><rect width="6" height="6"></rect></g>
<g transform="translate(816,384) scale(4.12)"><rect width="6" height="6"></rect></g>
<g transform="translate(840,384) scale(4.12)"><rect width="6" height="6"></rect></g>
<g transform="translate(888,384) scale(4.12)"><rect width="6" height="6"></rect></g>
<g transform="translate(912,384) scale(4.12)"><rect width="6" height="6"></rect></g>
<g transform="translate(72,408) scale(4.12)"><rect width="6" height="6"></rect></g>
<g transform="translate(96,408) scale(4.12)"><rect width="6" height="6"></rect></g>
<g transform="translate(120,408) scale(4.12)"><rect width="6" height="6"></rect></g>
<g transform="translate(216,408) scale(4.12)"><rect width="6" height="6"></rect></g>
<g transform="translate(240,408) scale(4.12)"><rect width="6" height="6"></rect></g>
<g transform="translate(288,408) scale(4.12)"><rect width="6" height="6"></rect></g>
<g transform="translate(408,408) scale(4.12)"><rect width="6" height="6"></rect></g>
<g transform="translate(432,408) scale(4.12)"><rect width="6" height="6"></rect></g>
<g transform="translate(456,408) scale(4.12)"><rect width="6" height="6"></rect></g>
<g transform="translate(480,408) scale(4.12)"><rect width="6" height="6"></rect></g>
<g transform="translate(552,408) scale(4.12)"><rect width="6" height="6"></rect></g>
<g transform="translate(576,408) scale(4.12)"><rect width="6" height="6"></rect></g>
<g transform="translate(672,408) scale(4.12)"><rect width="6" height="6"></rect></g>
<g transform="translate(720,408) scale(4.12)"><rect width="6" height="6"></rect></g>
<g transform="translate(744,408) scale(4.12)"><rect width="6" height="6"></rect></g>
<g transform="translate(792,408) scale(4.12)"><rect width="6" height="6"></rect></g>
<g transform="translate(816,408) scale(4.12)"><rect width="6" height="6"></rect></g>
<g transform="translate(888,408) scale(4.12)"><rect width="6" height="6"></rect></g>
<g transform="translate(912,408) scale(4.12)"><rect width="6" height="6"></rect></g>
<g transform="translate(48,432) scale(4.12)"><rect width="6" height="6"></rect></g>
<g transform="translate(72,432) scale(4.12)"><rect width="6" height="6"></rect></g>
<g transform="translate(96,432) scale(4.12)"><rect width="6" height="6"></rect></g>
<g transform="translate(120,432) scale(4.12)"><rect width="6" height="6"></rect></g>
<g transform="translate(192,432) scale(4.12)"><rect width="6" height="6"></rect></g>
<g transform="translate(216,432) scale(4.12)"><rect width="6" height="6"></rect></g>
<g transform="translate(240,432) scale(4.12)"><rect width="6" height="6"></rect></g>
<g transform="translate(264,432) scale(4.12)"><rect width="6" height="6"></rect></g>
<g transform="translate(288,432) scale(4.12)"><rect width="6" height="6"></rect></g>
<g transform="translate(312,432) scale(4.12)"><rect width="6" height="6"></rect></g>
<g transform="translate(360,432) scale(4.12)"><rect width="6" height="6"></rect></g>
<g transform="translate(432,432) scale(4.12)"><rect width="6" height="6"></rect></g>
<g transform="translate(552,432) scale(4.12)"><rect width="6" height="6"></rect></g>
<g transform="translate(600,432) scale(4.12)"><rect width="6" height="6"></rect></g>
<g transform="translate(624,432) scale(4.12)"><rect width="6" height="6"></rect></g>
<g transform="translate(648,432) scale(4.12)"><rect width="6" height="6"></rect></g>
<g transform="translate(672,432) scale(4.12)"><rect width="6" height="6"></rect></g>
<g transform="translate(696,432) scale(4.12)"><rect width="6" height="6"></rect></g>
<g transform="translate(744,432) scale(4.12)"><rect width="6" height="6"></rect></g>
<g transform="translate(768,432) scale(4.12)"><rect width="6" height="6"></rect></g>
<g transform="translate(792,432) scale(4.12)"><rect width="6" height="6"></rect></g>
<g transform="translate(816,432) scale(4.12)"><rect width="6" height="6"></rect></g>
<g transform="translate(864,432) scale(4.12)"><rect width="6" height="6"></rect></g>
<g transform="translate(48,456) scale(4.12)"><rect width="6" height="6"></rect></g>
<g transform="translate(120,456) scale(4.12)"><rect width="6" height="6"></rect></g>
<g transform="translate(168,456) scale(4.12)"><rect width="6" height="6"></rect></g>
<g transform="translate(288,456) scale(4.12)"><rect width="6" height="6"></rect></g>
<g transform="translate(336,456) scale(4.12)"><rect width="6" height="6"></rect></g>
<g transform="translate(408,456) scale(4.12)"><rect width="6" height="6"></rect></g>
<g transform="translate(480,456) scale(4.12)"><rect width="6" height="6"></rect></g>
<g transform="translate(528,456) scale(4.12)"><rect width="6" height="6"></rect></g>
<g transform="translate(576,456) scale(4.12)"><rect width="6" height="6"></rect></g>
<g transform="translate(624,456) scale(4.12)"><rect width="6" height="6"></rect></g>
<g transform="translate(648,456) scale(4.12)"><rect width="6" height="6"></rect></g>
<g transform="translate(672,456) scale(4.12)"><rect width="6" height="6"></rect></g>
<g transform="translate(792,456) scale(4.12)"><rect width="6" height="6"></rect></g>
<g transform="translate(864,456) scale(4.12)"><rect width="6" height="6"></rect></g>
<g transform="translate(888,456) scale(4.12)"><rect width="6" height="6"></rect></g>
<g transform="translate(48,480) scale(4.12)"><rect width="6" height="6"></rect></g>
<g transform="translate(72,480) scale(4.12)"><rect width="6" height="6"></rect></g>
<g transform="translate(168,480) scale(4.12)"><rect width="6" height="6"></rect></g>
<g transform="translate(192,480) scale(4.12)"><rect width="6" height="6"></rect></g>
<g transform="translate(216,480) scale(4.12)"><rect width="6" height="6"></rect></g>
<g transform="translate(264,480) scale(4.12)"><rect width="6" height="6"></rect></g>
<g transform="translate(288,480) scale(4.12)"><rect width="6" height="6"></rect></g>
<g transform="translate(312,480) scale(4.12)"><rect width="6" height="6"></rect></g>
<g transform="translate(408,480) scale(4.12)"><rect width="6" height="6"></rect></g>
<g transform="translate(432,480) scale(4.12)"><rect width="6" height="6"></rect></g>
<g transform="translate(504,480) scale(4.12)"><rect width="6" height="6"></rect></g>
<g transform="translate(576,480) scale(4.12)"><rect width="6" height="6"></rect></g>
<g transform="translate(672,480) scale(4.12)"><rect width="6" height="6"></rect></g>
<g transform="translate(696,480) scale(4.12)"><rect width="6" height="6"></rect></g>
<g transform="translate(720,480) scale(4.12)"><rect width="6" height="6"></rect></g>
<g transform="translate(744,480) scale(4.12)"><rect width="6" height="6"></rect></g>
<g transform="translate(816,480) scale(4.12)"><rect width="6" height="6"></rect></g>
<g transform="translate(888,480) scale(4.12)"><rect width="6" height="6"></rect></g>
<g transform="translate(912,480) scale(4.12)"><rect width="6" height="6"></rect></g>
<g transform="translate(48,504) scale(4.12)"><rect width="6" height="6"></rect></g>
<g transform="translate(72,504) scale(4.12)"><rect width="6" height="6"></rect></g>
<g transform="translate(144,504) scale(4.12)"><rect width="6" height="6"></rect></g>
<g transform="translate(168,504) scale(4.12)"><rect width="6" height="6"></rect></g>
<g transform="translate(240,504) scale(4.12)"><rect width="6" height="6"></rect></g>
<g transform="translate(264,504) scale(4.12)"><rect width="6" height="6"></rect></g>
<g transform="translate(312,504) scale(4.12)"><rect width="6" height="6"></rect></g>
<g transform="translate(336,504) scale(4.12)"><rect width="6" height="6"></rect></g>
<g transform="translate(408,504) scale(4.12)"><rect width="6" height="6"></rect></g>
<g transform="translate(480,504) scale(4.12)"><rect width="6" height="6"></rect></g>
<g transform="translate(504,504) scale(4.12)"><rect width="6" height="6"></rect></g>
<g transform="translate(528,504) scale(4.12)"><rect width="6" height="6"></rect></g>
<g transform="translate(552,504) scale(4.12)"><rect width="6" height="6"></rect></g>
<g transform="translate(576,504) scale(4.12)"><rect width="6" height="6"></rect></g>
<g transform="translate(624,504) scale(4.12)"><rect width="6" height="6"></rect></g>
<g transform="translate(696,504) scale(4.12)"><rect width="6" height="6"></rect></g>
<g transform="translate(720,504) scale(4.12)"><rect width="6" height="6"></rect></g>
<g transform="translate(768,504) scale(4.12)"><rect width="6" height="6"></rect></g>
<g transform="translate(792,504) scale(4.12)"><rect width="6" height="6"></rect></g>
<g transform="translate(816,504) scale(4.12)"><rect width="6" height="6"></rect></g>
<g transform="translate(912,504) scale(4.12)"><rect width="6" height="6"></rect></g>
<g transform="translate(48,528) scale(4.12)"><rect width="6" height="6"></rect></g>
<g transform="translate(144,528) scale(4.12)"><rect width="6" height="6"></rect></g>
<g transform="translate(192,528) scale(4.12)"><rect width="6" height="6"></rect></g>
<g transform="translate(240,528) scale(4.12)"><rect width="6" height="6"></rect></g>
<g transform="translate(264,528) scale(4.12)"><rect width="6" height="6"></rect></g>
<g transform="translate(288,528) scale(4.12)"><rect width="6" height="6"></rect></g>
<g transform="translate(360,528) scale(4.12)"><rect width="6" height="6"></rect></g>
<g transform="translate(384,528) scale(4.12)"><rect width="6" height="6"></rect></g>
<g transform="translate(408,528) scale(4.12)"><rect width="6" height="6"></rect></g>
<g transform="translate(456,528) scale(4.12)"><rect width="6" height="6"></rect></g>
<g transform="translate(504,528) scale(4.12)"><rect width="6" height="6"></rect></g>
<g transform="translate(528,528) scale(4.12)"><rect width="6" height="6"></rect></g>
<g transform="translate(576,528) scale(4.12)"><rect width="6" height="6"></rect></g>
<g transform="translate(600,528) scale(4.12)"><rect width="6" height="6"></rect></g>
<g transform="translate(624,528) scale(4.12)"><rect width="6" height="6"></rect></g>
<g transform="translate(648,528) scale(4.12)"><rect width="6" height="6"></rect></g>
<g transform="translate(672,528) scale(4.12)"><rect width="6" height="6"></rect></g>
<g transform="translate(696,528) scale(4.12)"><rect width="6" height="6"></rect></g>
<g transform="translate(744,528) scale(4.12)"><rect width="6" height="6"></rect></g>
<g transform="translate(768,528) scale(4.12)"><rect width="6" height="6"></rect></g>
<g transform="translate(816,528) scale(4.12)"><rect width="6" height="6"></rect></g>
<g transform="translate(840,528) scale(4.12)"><rect width="6" height="6"></rect></g>
<g transform="translate(864,528) scale(4.12)"><rect width="6" height="6"></rect></g>
<g transform="translate(48,552) scale(4.12)"><rect width="6" height="6"></rect></g>
<g transform="translate(72,552) scale(4.12)"><rect width="6" height="6"></rect></g>
<g transform="translate(96,552) scale(4.12)"><rect width="6" height="6"></rect></g>
<g transform="translate(120,552) scale(4.12)"><rect width="6" height="6"></rect></g>
<g transform="translate(144,552) scale(4.12)"><rect width="6" height="6"></rect></g>
<g transform="translate(168,552) scale(4.12)"><rect width="6" height="6"></rect></g>
<g transform="translate(216,552) scale(4.12)"><rect width="6" height="6"></rect></g>
<g transform="translate(240,552) scale(4.12)"><rect width="6" height="6"></rect></g>
<g transform="translate(312,552) scale(4.12)"><rect width="6" height="6"></rect></g>
<g transform="translate(336,552) scale(4.12)"><rect width="6" height="6"></rect></g>
<g transform="translate(384,552) scale(4.12)"><rect width="6" height="6"></rect></g>
<g transform="translate(432,552) scale(4.12)"><rect width="6" height="6"></rect></g>
<g transform="translate(480,552) scale(4.12)"><rect width="6" height="6"></rect></g>
<g transform="translate(504,552) scale(4.12)"><rect width="6" height="6"></rect></g>
<g transform="translate(528,552) scale(4.12)"><rect width="6" height="6"></rect></g>
<g transform="translate(576,552) scale(4.12)"><rect width="6" height="6"></rect></g>
<g transform="translate(600,552) scale(4.12)"><rect width="6" height="6"></rect></g>
<g transform="translate(720,552) scale(4.12)"><rect width="6" height="6"></rect></g>
<g transform="translate(840,552) scale(4.12)"><rect width="6" height="6"></rect></g>
<g transform="translate(72,576) scale(4.12)"><rect width="6" height="6"></rect></g>
<g transform="translate(120,576) scale(4.12)"><rect width="6" height="6"></rect></g>
<g transform="translate(168,576) scale(4.12)"><rect width="6" height="6"></rect></g>
<g transform="translate(192,576) scale(4.12)"><rect width="6" height="6"></rect></g>
<g transform="translate(264,576) scale(4.12)"><rect width="6" height="6"></rect></g>
<g transform="translate(312,576) scale(4.12)"><rect width="6" height="6"></rect></g>
<g transform="translate(384,576) scale(4.12)"><rect width="6" height="6"></rect></g>
<g transform="translate(408,576) scale(4.12)"><rect width="6" height="6"></rect></g>
<g transform="translate(432,576) scale(4.12)"><rect width="6" height="6"></rect></g>
<g transform="translate(480,576) scale(4.12)"><rect width="6" height="6"></rect></g>
<g transform="translate(528,576) scale(4.12)"><rect width="6" height="6"></rect></g>
<g transform="translate(576,576) scale(4.12)"><rect width="6" height="6"></rect></g>
<g transform="translate(672,576) scale(4.12)"><rect width="6" height="6"></rect></g>
<g transform="translate(696,576) scale(4.12)"><rect width="6" height="6"></rect></g>
<g transform="translate(744,576) scale(4.12)"><rect width="6" height="6"></rect></g>
<g transform="translate(768,576) scale(4.12)"><rect width="6" height="6"></rect></g>
<g transform="translate(792,576) scale(4.12)"><rect width="6" height="6"></rect></g>
<g transform="translate(816,576) scale(4.12)"><rect width="6" height="6"></rect></g>
<g transform="translate(840,576) scale(4.12)"><rect width="6" height="6"></rect></g>
<g transform="translate(888,576) scale(4.12)"><rect width="6" height="6"></rect></g>
<g transform="translate(912,576) scale(4.12)"><rect width="6" height="6"></rect></g>
<g transform="translate(48,600) scale(4.12)"><rect width="6" height="6"></rect></g>
<g transform="translate(72,600) scale(4.12)"><rect width="6" height="6"></rect></g>
<g transform="translate(120,600) scale(4.12)"><rect width="6" height="6"></rect></g>
<g transform="translate(144,600) scale(4.12)"><rect width="6" height="6"></rect></g>
<g transform="translate(216,600) scale(4.12)"><rect width="6" height="6"></rect></g>
<g transform="translate(384,600) scale(4.12)"><rect width="6" height="6"></rect></g>
<g transform="translate(408,600) scale(4.12)"><rect width="6" height="6"></rect></g>
<g transform="translate(600,600) scale(4.12)"><rect width="6" height="6"></rect></g>
<g transform="translate(672,600) scale(4.12)"><rect width="6" height="6"></rect></g>
<g transform="translate(720,600) scale(4.12)"><rect width="6" height="6"></rect></g>
<g transform="translate(744,600) scale(4.12)"><rect width="6" height="6"></rect></g>
<g transform="translate(768,600) scale(4.12)"><rect width="6" height="6"></rect></g>
<g transform="translate(792,600) scale(4.12)"><rect width="6" height="6"></rect></g>
<g transform="translate(816,600) scale(4.12)"><rect width="6" height="6"></rect></g>
<g transform="translate(888,600) scale(4.12)"><rect width="6" height="6"></rect></g>
<g transform="translate(96,624) scale(4.12)"><rect width="6" height="6"></rect></g>
<g transform="translate(192,624) scale(4.12)"><rect width="6" height="6"></rect></g>
<g transform="translate(216,624) scale(4.12)"><rect width="6" height="6"></rect></g>
<g transform="translate(240,624) scale(4.12)"><rect width="6" height="6"></rect></g>
<g transform="translate(336,624) scale(4.12)"><rect width="6" height="6"></rect></g>
<g transform="translate(384,624) scale(4.12)"><rect width="6" height="6"></rect></g>
<g transform="translate(480,624) scale(4.12)"><rect width="6" height="6"></rect></g>
<g transform="translate(528,624) scale(4.12)"><rect width="6" height="6"></rect></g>
<g transform="translate(552,624) scale(4.12)"><rect width="6" height="6"></rect></g>
<g transform="translate(576,624) scale(4.12)"><rect width="6" height="6"></rect></g>
<g transform="translate(600,624) scale(4.12)"><rect width="6" height="6"></rect></g>
<g transform="translate(648,624) scale(4.12)"><rect width="6" height="6"></rect></g>
<g transform="translate(672,624) scale(4.12)"><rect width="6" height="6"></rect></g>
<g transform="translate(744,624) scale(4.12)"><rect width="6" height="6"></rect></g>
<g transform="translate(768,624) scale(4.12)"><rect width="6" height="6"></rect></g>
<g transform="translate(816,624) scale(4.12)"><rect width="6" height="6"></rect></g>
<g transform="translate(864,624) scale(4.12)"><rect width="6" height="6"></rect></g>
<g transform="translate(888,624) scale(4.12)"><rect width="6" height="6"></rect></g>
<g transform="translate(48,648) scale(4.12)"><rect width="6" height="6"></rect></g>
<g transform="translate(96,648) scale(4.12)"><rect width="6" height="6"></rect></g>
<g transform="translate(168,648) scale(4.12)"><rect width="6" height="6"></rect></g>
<g transform="translate(216,648) scale(4.12)"><rect width="6" height="6"></rect></g>
<g transform="translate(240,648) scale(4.12)"><rect width="6" height="6"></rect></g>
<g transform="translate(312,648) scale(4.12)"><rect width="6" height="6"></rect></g>
<g transform="translate(336,648) scale(4.12)"><rect width="6" height="6"></rect></g>
<g transform="translate(360,648) scale(4.12)"><rect width="6" height="6"></rect></g>
<g transform="translate(408,648) scale(4.12)"><rect width="6" height="6"></rect></g>
<g transform="translate(432,648) scale(4.12)"><rect width="6" height="6"></rect></g>
<g transform="translate(552,648) scale(4.12)"><rect width="6" height="6"></rect></g>
<g transform="translate(600,648) scale(4.12)"><rect width="6" height="6"></rect></g>
<g transform="translate(672,648) scale(4.12)"><rect width="6" height="6"></rect></g>
<g transform="translate(720,648) scale(4.12)"><rect width="6" height="6"></rect></g>
<g transform="translate(840,648) scale(4.12)"><rect width="6" height="6"></rect></g>
<g transform="translate(48,672) scale(4.12)"><rect width="6" height="6"></rect></g>
<g transform="translate(144,672) scale(4.12)"><rect width="6" height="6"></rect></g>
<g transform="translate(168,672) scale(4.12)"><rect width="6" height="6"></rect></g>
<g transform="translate(192,672) scale(4.12)"><rect width="6" height="6"></rect></g>
<g transform="translate(240,672) scale(4.12)"><rect width="6" height="6"></rect></g>
<g transform="translate(264,672) scale(4.12)"><rect width="6" height="6"></rect></g>
<g transform="translate(288,672) scale(4.12)"><rect width="6" height="6"></rect></g>
<g transform="translate(336,672) scale(4.12)"><rect width="6" height="6"></rect></g>
<g transform="translate(360,672) scale(4.12)"><rect width="6" height="6"></rect></g>
<g transform="translate(384,672) scale(4.12)"><rect width="6" height="6"></rect></g>
<g transform="translate(528,672) scale(4.12)"><rect width="6" height="6"></rect></g>
<g transform="translate(624,672) scale(4.12)"><rect width="6" height="6"></rect></g>
<g transform="translate(672,672) scale(4.12)"><rect width="6" height="6"></rect></g>
<g transform="translate(696,672) scale(4.12)"><rect width="6" height="6"></rect></g>
<g transform="translate(720,672) scale(4.12)"><rect width="6" height="6"></rect></g>
<g transform="translate(768,672) scale(4.12)"><rect width="6" height="6"></rect></g>
<g transform="translate(792,672) scale(4.12)"><rect width="6" height="6"></rect></g>
<g transform="translate(864,672) scale(4.12)"><rect width="6" height="6"></rect></g>
<g transform="translate(888,672) scale(4.12)"><rect width="6" height="6"></rect></g>
<g transform="translate(912,672) scale(4.12)"><rect width="6" height="6"></rect></g>
<g transform="translate(48,696) scale(4.12)"><rect width="6" height="6"></rect></g>
<g transform="translate(96,696) scale(4.12)"><rect width="6" height="6"></rect></g>
<g transform="translate(120,696) scale(4.12)"><rect width="6" height="6"></rect></g>
<g transform="translate(168,696) scale(4.12)"><rect width="6" height="6"></rect></g>
<g transform="translate(216,696) scale(4.12)"><rect width="6" height="6"></rect></g>
<g transform="translate(288,696) scale(4.12)"><rect width="6" height="6"></rect></g>
<g transform="translate(312,696) scale(4.12)"><rect width="6" height="6"></rect></g>
<g transform="translate(432,696) scale(4.12)"><rect width="6" height="6"></rect></g>
<g transform="translate(552,696) scale(4.12)"><rect width="6" height="6"></rect></g>
<g transform="translate(672,696) scale(4.12)"><rect width="6" height="6"></rect></g>
<g transform="translate(744,696) scale(4.12)"><rect width="6" height="6"></rect></g>
<g transform="translate(768,696) scale(4.12)"><rect width="6" height="6"></rect></g>
<g transform="translate(792,696) scale(4.12)"><rect width="6" height="6"></rect></g>
<g transform="translate(816,696) scale(4.12)"><rect width="6" height="6"></rect></g>
<g transform="translate(888,696) scale(4.12)"><rect width="6" height="6"></rect></g>
<g transform="translate(912,696) scale(4.12)"><rect width="6" height="6"></rect></g>
<g transform="translate(48,720) scale(4.12)"><rect width="6" height="6"></rect></g>
<g transform="translate(96,720) scale(4.12)"><rect width="6" height="6"></rect></g>
<g transform="translate(120,720) scale(4.12)"><rect width="6" height="6"></rect></g>
<g transform="translate(192,720) scale(4.12)"><rect width="6" height="6"></rect></g>
<g transform="translate(240,720) scale(4.12)"><rect width="6" height="6"></rect></g>
<g transform="translate(264,720) scale(4.12)"><rect width="6" height="6"></rect></g>
<g transform="translate(288,720) scale(4.12)"><rect width="6" height="6"></rect></g>
<g transform="translate(336,720) scale(4.12)"><rect width="6" height="6"></rect></g>
<g transform="translate(360,720) scale(4.12)"><rect width="6" height="6"></rect></g>
<g transform="translate(456,720) scale(4.12)"><rect width="6" height="6"></rect></g>
<g transform="translate(576,720) scale(4.12)"><rect width="6" height="6"></rect></g>
<g transform="translate(624,720) scale(4.12)"><rect width="6" height="6"></rect></g>
<g transform="translate(648,720) scale(4.12)"><rect width="6" height="6"></rect></g>
<g transform="translate(696,720) scale(4.12)"><rect width="6" height="6"></rect></g>
<g transform="translate(720,720) scale(4.12)"><rect width="6" height="6"></rect></g>
<g transform="translate(744,720) scale(4.12)"><rect width="6" height="6"></rect></g>
<g transform="translate(768,720) scale(4.12)"><rect width="6" height="6"></rect></g>
<g transform="translate(792,720) scale(4.12)"><rect width="6" height="6"></rect></g>
<g transform="translate(816,720) scale(4.12)"><rect width="6" height="6"></rect></g>
<g transform="translate(840,720) scale(4.12)"><rect width="6" height="6"></rect></g>
<g transform="translate(864,720) scale(4.12)"><rect width="6" height="6"></rect></g>
<g transform="translate(912,720) scale(4.12)"><rect width="6" height="6"></rect></g>
<g transform="translate(240,744) scale(4.12)"><rect width="6" height="6"></rect></g>
<g transform="translate(432,744) scale(4.12)"><rect width="6" height="6"></rect></g>
<g transform="translate(456,744) scale(4.12)"><rect width="6" height="6"></rect></g>
<g transform="translate(504,744) scale(4.12)"><rect width="6" height="6"></rect></g>
<g transform="translate(528,744) scale(4.12)"><rect width="6" height="6"></rect></g>
<g transform="translate(552,744) scale(4.12)"><rect width="6" height="6"></rect></g>
<g transform="translate(600,744) scale(4.12)"><rect width="6" height="6"></rect></g>
<g transform="translate(696,744) scale(4.12)"><rect width="6" height="6"></rect></g>
<g transform="translate(720,744) scale(4.12)"><rect width="6" height="6"></rect></g>
<g transform="translate(816,744) scale(4.12)"><rect width="6" height="6"></rect></g>
<g transform="translate(840,744) scale(4.12)"><rect width="6" height="6"></rect></g>
<g transform="translate(888,744) scale(4.12)"><rect width="6" height="6"></rect></g>
<g transform="translate(264,768) scale(4.12)"><rect width="6" height="6"></rect></g>
<g transform="translate(408,768) scale(4.12)"><rect width="6" height="6"></rect></g>
<g transform="translate(432,768) scale(4.12)"><rect width="6" height="6"></rect></g>
<g transform="translate(456,768) scale(4.12)"><rect width="6" height="6"></rect></g>
<g transform="translate(528,768) scale(4.12)"><rect width="6" height="6"></rect></g>
<g transform="translate(552,768) scale(4.12)"><rect width="6" height="6"></rect></g>
<g transform="translate(648,768) scale(4.12)"><rect width="6" height="6"></rect></g>
<g transform="translate(720,768) scale(4.12)"><rect width="6" height="6"></rect></g>
<g transform="translate(768,768) scale(4.12)"><rect width="6" height="6"></rect></g>
<g transform="translate(816,768) scale(4.12)"><rect width="6" height="6"></rect></g>
<g transform="translate(864,768) scale(4.12)"><rect width="6" height="6"></rect></g>
<g transform="translate(912,768) scale(4.12)"><rect width="6" height="6"></rect></g>
<g transform="translate(240,792) scale(4.12)"><rect width="6" height="6"></rect></g>
<g transform="translate(264,792) scale(4.12)"><rect width="6" height="6"></rect></g>
<g transform="translate(288,792) scale(4.12)"><rect width="6" height="6"></rect></g>
<g transform="translate(312,792) scale(4.12)"><rect width="6" height="6"></rect></g>
<g transform="translate(336,792) scale(4.12)"><rect width="6" height="6"></rect></g>
<g transform="translate(360,792) scale(4.12)"><rect width="6" height="6"></rect></g>
<g transform="translate(384,792) scale(4.12)"><rect width="6" height="6"></rect></g>
<g transform="translate(408,792) scale(4.12)"><rect width="6" height="6"></rect></g>
<g transform="translate(456,792) scale(4.12)"><rect width="6" height="6"></rect></g>
<g transform="translate(480,792) scale(4.12)"><rect width="6" height="6"></rect></g>
<g transform="translate(504,792) scale(4.12)"><rect width="6" height="6"></rect></g>
<g transform="translate(528,792) scale(4.12)"><rect width="6" height="6"></rect></g>
<g transform="translate(552,792) scale(4.12)"><rect width="6" height="6"></rect></g>
<g transform="translate(576,792) scale(4.12)"><rect width="6" height="6"></rect></g>
<g transform="translate(600,792) scale(4.12)"><rect width="6" height="6"></rect></g>
<g transform="translate(624,792) scale(4.12)"><rect width="6" height="6"></rect></g>
<g transform="translate(696,792) scale(4.12)"><rect width="6" height="6"></rect></g>
<g transform="translate(720,792) scale(4.12)"><rect width="6" height="6"></rect></g>
<g transform="translate(816,792) scale(4.12)"><rect width="6" height="6"></rect></g>
<g transform="translate(840,792) scale(4.12)"><rect width="6" height="6"></rect></g>
<g transform="translate(888,792) scale(4.12)"><rect width="6" height="6"></rect></g>
<g transform="translate(240,816) scale(4.12)"><rect width="6" height="6"></rect></g>
<g transform="translate(264,816) scale(4.12)"><rect width="6" height="6"></rect></g>
<g transform="translate(288,816) scale(4.12)"><rect width="6" height="6"></rect></g>
<g transform="translate(312,816) scale(4.12)"><rect width="6" height="6"></rect></g>
<g transform="translate(384,816) scale(4.12)"><rect width="6" height="6"></rect></g>
<g transform="translate(408,816) scale(4.12)"><rect width="6" height="6"></rect></g>
<g transform="translate(432,816) scale(4.12)"><rect width="6" height="6"></rect></g>
<g transform="translate(504,816) scale(4.12)"><rect width="6" height="6"></rect></g>
<g transform="translate(552,816) scale(4.12)"><rect width="6" height="6"></rect></g>
<g transform="translate(648,816) scale(4.12)"><rect width="6" height="6"></rect></g>
<g transform="translate(672,816) scale(4.12)"><rect width="6" height="6"></rect></g>
<g transform="translate(696,816) scale(4.12)"><rect width="6" height="6"></rect></g>
<g transform="translate(720,816) scale(4.12)"><rect width="6" height="6"></rect></g>
<g transform="translate(744,816) scale(4.12)"><rect width="6" height="6"></rect></g>
<g transform="translate(768,816) scale(4.12)"><rect width="6" height="6"></rect></g>
<g transform="translate(792,816) scale(4.12)"><rect width="6" height="6"></rect></g>
<g transform="translate(816,816) scale(4.12)"><rect width="6" height="6"></rect></g>
<g transform="translate(864,816) scale(4.12)"><rect width="6" height="6"></rect></g>
<g transform="translate(912,816) scale(4.12)"><rect width="6" height="6"></rect></g>
<g transform="translate(240,840) scale(4.12)"><rect width="6" height="6"></rect></g>
<g transform="translate(264,840) scale(4.12)"><rect width="6" height="6"></rect></g>
<g transform="translate(360,840) scale(4.12)"><rect width="6" height="6"></rect></g>
<g transform="translate(408,840) scale(4.12)"><rect width="6" height="6"></rect></g>
<g transform="translate(480,840) scale(4.12)"><rect width="6" height="6"></rect></g>
<g transform="translate(528,840) scale(4.12)"><rect width="6" height="6"></rect></g>
<g transform="translate(552,840) scale(4.12)"><rect width="6" height="6"></rect></g>
<g transform="translate(576,840) scale(4.12)"><rect width="6" height="6"></rect></g>
<g transform="translate(600,840) scale(4.12)"><rect width="6" height="6"></rect></g>
<g transform="translate(648,840) scale(4.12)"><rect width="6" height="6"></rect></g>
<g transform="translate(744,840) scale(4.12)"><rect width="6" height="6"></rect></g>
<g transform="translate(768,840) scale(4.12)"><rect width="6" height="6"></rect></g>
<g transform="translate(816,840) scale(4.12)"><rect width="6" height="6"></rect></g>
<g transform="translate(864,840) scale(4.12)"><rect width="6" height="6"></rect></g>
<g transform="translate(912,840) scale(4.12)"><rect width="6" height="6"></rect></g>
<g transform="translate(240,864) scale(4.12)"><rect width="6" height="6"></rect></g>
<g transform="translate(384,864) scale(4.12)"><rect width="6" height="6"></rect></g>
<g transform="translate(408,864) scale(4.12)"><rect width="6" height="6"></rect></g>
<g transform="translate(432,864) scale(4.12)"><rect width="6" height="6"></rect></g>
<g transform="translate(504,864) scale(4.12)"><rect width="6" height="6"></rect></g>
<g transform="translate(552,864) scale(4.12)"><rect width="6" height="6"></rect></g>
<g transform="translate(576,864) scale(4.12)"><rect width="6" height="6"></rect></g>
<g transform="translate(648,864) scale(4.12)"><rect width="6" height="6"></rect></g>
<g transform="translate(672,864) scale(4.12)"><rect width="6" height="6"></rect></g>
<g transform="translate(696,864) scale(4.12)"><rect width="6" height="6"></rect></g>
<g transform="translate(720,864) scale(4.12)"><rect width="6" height="6"></rect></g>
<g transform="translate(744,864) scale(4.12)"><rect width="6" height="6"></rect></g>
<g transform="translate(864,864) scale(4.12)"><rect width="6" height="6"></rect></g>
<g transform="translate(888,864) scale(4.12)"><rect width="6" height="6"></rect></g>
<g transform="translate(912,864) scale(4.12)"><rect width="6" height="6"></rect></g>
<g transform="translate(312,888) scale(4.12)"><rect width="6" height="6"></rect></g>
<g transform="translate(336,888) scale(4.12)"><rect width="6" height="6"></rect></g>
<g transform="translate(384,888) scale(4.12)"><rect width="6" height="6"></rect></g>
<g transform="translate(408,888) scale(4.12)"><rect width="6" height="6"></rect></g>
<g transform="translate(480,888) scale(4.12)"><rect width="6" height="6"></rect></g>
<g transform="translate(504,888) scale(4.12)"><rect width="6" height="6"></rect></g>
<g transform="translate(528,888) scale(4.12)"><rect width="6" height="6"></rect></g>
<g transform="translate(552,888) scale(4.12)"><rect width="6" height="6"></rect></g>
<g transform="translate(576,888) scale(4.12)"><rect width="6" height="6"></rect></g>
<g transform="translate(624,888) scale(4.12)"><rect width="6" height="6"></rect></g>
<g transform="translate(720,888) scale(4.12)"><rect width="6" height="6"></rect></g>
<g transform="translate(744,888) scale(4.12)"><rect width="6" height="6"></rect></g>
<g transform="translate(816,888) scale(4.12)"><rect width="6" height="6"></rect></g>
<g transform="translate(912,888) scale(4.12)"><rect width="6" height="6"></rect></g>
<g transform="translate(240,912) scale(4.12)"><rect width="6" height="6"></rect></g>
<g transform="translate(288,912) scale(4.12)"><rect width="6" height="6"></rect></g>
<g transform="translate(360,912) scale(4.12)"><rect width="6" height="6"></rect></g>
<g transform="translate(384,912) scale(4.12)"><rect width="6" height="6"></rect></g>
<g transform="translate(408,912) scale(4.12)"><rect width="6" height="6"></rect></g>
<g transform="translate(456,912) scale(4.12)"><rect width="6" height="6"></rect></g>
<g transform="translate(504,912) scale(4.12)"><rect width="6" height="6"></rect></g>
<g transform="translate(600,912) scale(4.12)"><rect width="6" height="6"></rect></g>
<g transform="translate(624,912) scale(4.12)"><rect width="6" height="6"></rect></g>
<g transform="translate(648,912) scale(4.12)"><rect width="6" height="6"></rect></g>
<g transform="translate(672,912) scale(4.12)"><rect width="6" height="6"></rect></g>
<g transform="translate(816,912) scale(4.12)"><rect width="6" height="6"></rect></g>
<g transform="translate(840,912) scale(4.12)"><rect width="6" height="6"></rect></g>
<g transform="translate(864,912) scale(4.12)"><rect width="6" height="6"></rect></g>
<g transform="translate(888,912) scale(4.12)"><rect width="6" height="6"></rect></g>
<g transform="translate(912,912) scale(4.12)"><rect width="6" height="6"></rect></g>
<g transform="translate(48,48)"><g transform="scale(12)"><path d="M0,0v14h14V0H0z M12,12H2V2h10V12z"></path></g></g>
<g transform="translate(768,48)"><g transform="scale(12)"><path d="M0,0v14h14V0H0z M12,12H2V2h10V12z"></path></g></g>
<g transform="translate(48,768)"><g transform="scale(12)"><path d="M0,0v14h14V0H0z M12,12H2V2h10V12z"></path></g></g>
<g transform="translate(96,96)"><g transform="scale(12)"><rect width="6" height="6"></rect></g></g>
<g transform="translate(816,96)"><g transform="scale(12)"><rect width="6" height="6"></rect></g></g>
<g transform="translate(96,816)"><g transform="scale(12)"><rect width="6" height="6"></rect></g></g>
</g></svg>
