<svg preserveAspectRatio="xMidYMid meet" width="100%" height="100%" overflow="visible" style="display: block;" viewBox="0 0 40 40" fill="none" xmlns="http://www.w3.org/2000/svg">
<g id="Icon">
<path id="Union" d="M22.8327 6.38637C24.6914 6.38655 26.2031 7.87132 26.2477 9.71938H28.5299C29.802 9.71955 31.023 10.2252 31.9225 11.1247C35.7599 14.9622 37.9165 20.1674 37.9167 25.5944V27.1364C37.9163 29.0016 36.4203 30.5162 34.5631 30.5504C34.3515 33.3482 32.0166 35.5522 29.1647 35.5524C26.3136 35.5524 23.9785 33.3498 23.7653 30.5534H16.2292C16.0161 33.3496 13.6825 35.5521 10.8317 35.5524C7.97994 35.5524 5.64351 33.3488 5.43131 30.5514C3.576 30.515 2.08285 29.0003 2.08268 27.1364V9.80337C2.08268 7.91639 3.6127 6.38637 5.49967 6.38637H22.8327ZM10.8317 27.2194C9.22088 27.2194 7.91472 28.5256 7.91471 30.1364C7.91489 31.7471 9.22098 33.0524 10.8317 33.0524C12.4421 33.052 13.7475 31.7468 13.7477 30.1364C13.7477 28.5258 12.4422 27.2197 10.8317 27.2194ZM29.1647 27.2194C27.58 27.2194 26.2911 28.4835 26.2497 30.0582V30.2116C26.2897 31.7875 27.5791 33.0524 29.1647 33.0524C30.7753 33.0522 32.0806 31.7469 32.0807 30.1364C32.0807 28.5257 30.7754 27.2196 29.1647 27.2194ZM5.49967 8.88637C4.99341 8.88637 4.58268 9.29711 4.58268 9.80337V27.1364C4.58286 27.6425 4.99352 28.0534 5.49967 28.0534H5.83073C6.64714 26.0959 8.57845 24.7194 10.8317 24.7194C13.0847 24.7196 15.0156 26.096 15.8317 28.0534H23.7497V9.80337C23.7497 9.29721 23.3388 8.88655 22.8327 8.88637H5.49967ZM26.2497 25.5709C27.0914 25.0324 28.0914 24.7194 29.1647 24.7194C31.4175 24.7195 33.3483 26.0954 34.1647 28.0524H34.4997C35.0054 28.052 35.4163 27.6421 35.4167 27.1364V25.5944C35.4165 20.8305 33.5234 16.261 30.1549 12.8922C29.7243 12.4616 29.139 12.2196 28.5299 12.2194H26.2497V25.5709ZM13.3307 18.0524C14.021 18.0524 14.5805 18.6122 14.5807 19.3024C14.5807 19.9927 14.0211 20.5524 13.3307 20.5524H8.33073C7.64052 20.5522 7.08073 19.9926 7.08073 19.3024C7.08091 18.6123 7.64064 18.0526 8.33073 18.0524H13.3307ZM18.3307 13.0524C19.021 13.0524 19.5805 13.6122 19.5807 14.3024C19.5807 14.9927 19.0211 15.5524 18.3307 15.5524H8.33073C7.64052 15.5522 7.08073 14.9926 7.08073 14.3024C7.08091 13.6123 7.64064 13.0526 8.33073 13.0524H18.3307Z" fill="var(--fill-0, black)" fill-opacity="0.9"/>
</g>
</svg>
