<svg preserveAspectRatio="xMidYMid meet" width="100%" height="100%" overflow="visible" style="display: block;" viewBox="0 0 40 40" fill="none" xmlns="http://www.w3.org/2000/svg">
<g id="alarm-icon">
<path id="Vector (Stroke)" d="M34 33.75C34.6904 33.75 35.25 34.3096 35.25 35C35.25 35.6904 34.6904 36.25 34 36.25H8.22168C7.53148 36.2498 6.97168 35.6902 6.97168 35C6.97168 34.3098 7.53148 33.7502 8.22168 33.75H34ZM29.5283 18.4219C29.5282 13.9042 25.7836 10.1993 21.1113 10.1992C16.439 10.1992 12.6944 13.9042 12.6943 18.4219V28.2236H29.5283V18.4219ZM3.81152 11.7168C4.02585 11.0607 4.73155 10.7028 5.3877 10.917L7.80469 11.7061C8.4609 11.9204 8.81882 12.626 8.60449 13.2822C8.39013 13.9385 7.68455 14.2964 7.02832 14.082L4.6123 13.293C3.95613 13.0786 3.59727 12.373 3.81152 11.7168ZM6.52344 6.49316C7.00663 6.0001 7.79892 5.99239 8.29199 6.47559L10.708 8.84375C11.201 9.32685 11.2095 10.1182 10.7266 10.6113C10.2434 11.1044 9.45108 11.1121 8.95801 10.6289L6.54199 8.26074C6.04902 7.77758 6.04038 6.98622 6.52344 6.49316ZM11.8477 3.81641C12.5012 3.59422 13.2113 3.94413 13.4336 4.59766L14.2393 6.96582C14.4615 7.61936 14.1115 8.32946 13.458 8.55176C12.8045 8.77397 12.0944 8.42404 11.8721 7.77051L11.0664 5.40234C10.8443 4.74883 11.1942 4.03869 11.8477 3.81641ZM32.0283 29.4736C32.0283 30.1638 31.4685 30.7234 30.7783 30.7236H11.4443C10.754 30.7236 10.1943 30.164 10.1943 29.4736V18.4219C10.1944 12.476 15.1062 7.69922 21.1113 7.69922C27.1164 7.69933 32.0282 12.4761 32.0283 18.4219V29.4736Z" fill="var(--fill-0, black)"/>
</g>
</svg>
