<svg preserveAspectRatio="xMidYMid meet" width="100%" height="100%" overflow="visible" style="display: block;" viewBox="0 0 40 40" fill="none" xmlns="http://www.w3.org/2000/svg">
<g id="Icon Container">
<g id="Vector">
<path d="M35.5 16.5312C36.6956 17.2229 37.5 18.5156 37.5 19.9961C37.5 21.4767 36.6956 22.7694 35.5 23.461V16.5312Z" fill="var(--fill-0, black)" fill-opacity="0.9"/>
<path d="M31.75 17C31.75 15.4812 30.5188 14.25 29 14.25H7C5.48122 14.25 4.25 15.4812 4.25 17V23C4.25 24.5188 5.48122 25.75 7 25.75H29C30.5188 25.75 31.75 24.5188 31.75 23V17ZM34.25 23C34.25 25.8995 31.8995 28.25 29 28.25H7C4.1005 28.25 1.75 25.8995 1.75 23V17C1.75 14.1005 4.10051 11.75 7 11.75H29C31.8995 11.75 34.25 14.1005 34.25 17V23Z" fill="black"/>
<path d="M7.39474 15.2656H21.6053C22.6517 15.2656 23.5 16.1139 23.5 17.1604V22.8446C23.5 23.891 22.6517 24.7393 21.6053 24.7393H7.39474C6.3483 24.7393 5.5 23.891 5.5 22.8446V17.1604C5.5 16.1139 6.3483 15.2656 7.39474 15.2656Z" fill="var(--fill-0, black)" fill-opacity="0.9"/>
</g>
</g>
</svg>
