<svg preserveAspectRatio="none" width="100%" height="100%" overflow="visible" style="display: block;" viewBox="0 0 80 80" fill="none" xmlns="http://www.w3.org/2000/svg">
<g id="Frame">
<g id="Vector">
<path d="M34.6595 4.32432H32.4324V6.55135H34.6595V4.32432Z" fill="black"/>
<path d="M43.3081 4.32432H41.0811V6.55135H43.3081V4.32432Z" fill="black"/>
<path d="M45.4703 4.32432H43.2432V6.55135H45.4703V4.32432Z" fill="black"/>
<path d="M47.6324 4.32432H45.4054V6.55135H47.6324V4.32432Z" fill="black"/>
<path d="M49.7946 4.32432H47.5676V6.55135H49.7946V4.32432Z" fill="black"/>
<path d="M51.9568 4.32432H49.7297V6.55135H51.9568V4.32432Z" fill="black"/>
<path d="M56.2811 4.32432H54.0541V6.55135H56.2811V4.32432Z" fill="black"/>
<path d="M28.173 6.48649H25.9459V8.71351H28.173V6.48649Z" fill="black"/>
<path d="M30.3351 6.48649H28.1081V8.71351H30.3351V6.48649Z" fill="black"/>
<path d="M34.6595 6.48649H32.4324V8.71351H34.6595V6.48649Z" fill="black"/>
<path d="M36.8216 6.48649H34.5946V8.71351H36.8216V6.48649Z" fill="black"/>
<path d="M38.9838 6.48649H36.7568V8.71351H38.9838V6.48649Z" fill="black"/>
<path d="M45.4703 6.48649H43.2432V8.71351H45.4703V6.48649Z" fill="black"/>
<path d="M49.7946 6.48649H47.5676V8.71351H49.7946V6.48649Z" fill="black"/>
<path d="M51.9568 6.48649H49.7297V8.71351H51.9568V6.48649Z" fill="black"/>
<path d="M54.1189 6.48649H51.8919V8.71351H54.1189V6.48649Z" fill="black"/>
<path d="M58.4432 6.48649H56.2162V8.71351H58.4432V6.48649Z" fill="black"/>
<path d="M23.8487 8.64865H21.6216V10.8757H23.8487V8.64865Z" fill="black"/>
<path d="M28.173 8.64865H25.9459V10.8757H28.173V8.64865Z" fill="black"/>
<path d="M32.4973 8.64865H30.2703V10.8757H32.4973V8.64865Z" fill="black"/>
<path d="M34.6595 8.64865H32.4324V10.8757H34.6595V8.64865Z" fill="black"/>
<path d="M38.9838 8.64865H36.7568V10.8757H38.9838V8.64865Z" fill="black"/>
<path d="M47.6324 8.64865H45.4054V10.8757H47.6324V8.64865Z" fill="black"/>
<path d="M49.7946 8.64865H47.5676V10.8757H49.7946V8.64865Z" fill="black"/>
<path d="M51.9568 8.64865H49.7297V10.8757H51.9568V8.64865Z" fill="black"/>
<path d="M54.1189 8.64865H51.8919V10.8757H54.1189V8.64865Z" fill="black"/>
<path d="M56.2811 8.64865H54.0541V10.8757H56.2811V8.64865Z" fill="black"/>
<path d="M23.8487 10.8108H21.6216V13.0378H23.8487V10.8108Z" fill="black"/>
<path d="M26.0108 10.8108H23.7838V13.0378H26.0108V10.8108Z" fill="black"/>
<path d="M36.8216 10.8108H34.5946V13.0378H36.8216V10.8108Z" fill="black"/>
<path d="M38.9838 10.8108H36.7568V13.0378H38.9838V10.8108Z" fill="black"/>
<path d="M43.3081 10.8108H41.0811V13.0378H43.3081V10.8108Z" fill="black"/>
<path d="M47.6324 10.8108H45.4054V13.0378H47.6324V10.8108Z" fill="black"/>
<path d="M54.1189 10.8108H51.8919V13.0378H54.1189V10.8108Z" fill="black"/>
<path d="M56.2811 10.8108H54.0541V13.0378H56.2811V10.8108Z" fill="black"/>
<path d="M58.4432 10.8108H56.2162V13.0378H58.4432V10.8108Z" fill="black"/>
<path d="M23.8487 12.973H21.6216V15.2H23.8487V12.973Z" fill="black"/>
<path d="M28.173 12.973H25.9459V15.2H28.173V12.973Z" fill="black"/>
<path d="M30.3351 12.973H28.1081V15.2H30.3351V12.973Z" fill="black"/>
<path d="M32.4973 12.973H30.2703V15.2H32.4973V12.973Z" fill="black"/>
<path d="M34.6595 12.973H32.4324V15.2H34.6595V12.973Z" fill="black"/>
<path d="M38.9838 12.973H36.7568V15.2H38.9838V12.973Z" fill="black"/>
<path d="M43.3081 12.973H41.0811V15.2H43.3081V12.973Z" fill="black"/>
<path d="M45.4703 12.973H43.2432V15.2H45.4703V12.973Z" fill="black"/>
<path d="M47.6324 12.973H45.4054V15.2H47.6324V12.973Z" fill="black"/>
<path d="M49.7946 12.973H47.5676V15.2H49.7946V12.973Z" fill="black"/>
<path d="M51.9568 12.973H49.7297V15.2H51.9568V12.973Z" fill="black"/>
<path d="M56.2811 12.973H54.0541V15.2H56.2811V12.973Z" fill="black"/>
<path d="M23.8487 15.1351H21.6216V17.3622H23.8487V15.1351Z" fill="black"/>
<path d="M28.173 15.1351H25.9459V17.3622H28.173V15.1351Z" fill="black"/>
<path d="M30.3351 15.1351H28.1081V17.3622H30.3351V15.1351Z" fill="black"/>
<path d="M34.6595 15.1351H32.4324V17.3622H34.6595V15.1351Z" fill="black"/>
<path d="M36.8216 15.1351H34.5946V17.3622H36.8216V15.1351Z" fill="black"/>
<path d="M38.9838 15.1351H36.7568V17.3622H38.9838V15.1351Z" fill="black"/>
<path d="M49.7946 15.1351H47.5676V17.3622H49.7946V15.1351Z" fill="black"/>
<path d="M51.9568 15.1351H49.7297V17.3622H51.9568V15.1351Z" fill="black"/>
<path d="M23.8487 17.2973H21.6216V19.5243H23.8487V17.2973Z" fill="black"/>
<path d="M28.173 17.2973H25.9459V19.5243H28.173V17.2973Z" fill="black"/>
<path d="M32.4973 17.2973H30.2703V19.5243H32.4973V17.2973Z" fill="black"/>
<path d="M36.8216 17.2973H34.5946V19.5243H36.8216V17.2973Z" fill="black"/>
<path d="M41.1459 17.2973H38.9189V19.5243H41.1459V17.2973Z" fill="black"/>
<path d="M45.4703 17.2973H43.2432V19.5243H45.4703V17.2973Z" fill="black"/>
<path d="M49.7946 17.2973H47.5676V19.5243H49.7946V17.2973Z" fill="black"/>
<path d="M54.1189 17.2973H51.8919V19.5243H54.1189V17.2973Z" fill="black"/>
<path d="M58.4432 17.2973H56.2162V19.5243H58.4432V17.2973Z" fill="black"/>
<path d="M23.8487 19.4595H21.6216V21.6865H23.8487V19.4595Z" fill="black"/>
<path d="M26.0108 19.4595H23.7838V21.6865H26.0108V19.4595Z" fill="black"/>
<path d="M28.173 19.4595H25.9459V21.6865H28.173V19.4595Z" fill="black"/>
<path d="M32.4973 19.4595H30.2703V21.6865H32.4973V19.4595Z" fill="black"/>
<path d="M36.8216 19.4595H34.5946V21.6865H36.8216V19.4595Z" fill="black"/>
<path d="M38.9838 19.4595H36.7568V21.6865H38.9838V19.4595Z" fill="black"/>
<path d="M47.6324 19.4595H45.4054V21.6865H47.6324V19.4595Z" fill="black"/>
<path d="M49.7946 19.4595H47.5676V21.6865H49.7946V19.4595Z" fill="black"/>
<path d="M51.9568 19.4595H49.7297V21.6865H51.9568V19.4595Z" fill="black"/>
<path d="M54.1189 19.4595H51.8919V21.6865H54.1189V19.4595Z" fill="black"/>
<path d="M56.2811 19.4595H54.0541V21.6865H56.2811V19.4595Z" fill="black"/>
<path d="M58.4432 19.4595H56.2162V21.6865H58.4432V19.4595Z" fill="black"/>
<path d="M6.55135 21.6216H4.32432V23.8487H6.55135V21.6216Z" fill="black"/>
<path d="M10.8757 21.6216H8.64865V23.8487H10.8757V21.6216Z" fill="black"/>
<path d="M13.0378 21.6216H10.8108V23.8487H13.0378V21.6216Z" fill="black"/>
<path d="M15.2 21.6216H12.973V23.8487H15.2V21.6216Z" fill="black"/>
<path d="M17.3622 21.6216H15.1351V23.8487H17.3622V21.6216Z" fill="black"/>
<path d="M19.5243 21.6216H17.2973V23.8487H19.5243V21.6216Z" fill="black"/>
<path d="M30.3351 21.6216H28.1081V23.8487H30.3351V21.6216Z" fill="black"/>
<path d="M34.6595 21.6216H32.4324V23.8487H34.6595V21.6216Z" fill="black"/>
<path d="M36.8216 21.6216H34.5946V23.8487H36.8216V21.6216Z" fill="black"/>
<path d="M41.1459 21.6216H38.9189V23.8487H41.1459V21.6216Z" fill="black"/>
<path d="M43.3081 21.6216H41.0811V23.8487H43.3081V21.6216Z" fill="black"/>
<path d="M45.4703 21.6216H43.2432V23.8487H45.4703V21.6216Z" fill="black"/>
<path d="M47.6324 21.6216H45.4054V23.8487H47.6324V21.6216Z" fill="black"/>
<path d="M54.1189 21.6216H51.8919V23.8487H54.1189V21.6216Z" fill="black"/>
<path d="M58.4432 21.6216H56.2162V23.8487H58.4432V21.6216Z" fill="black"/>
<path d="M62.7676 21.6216H60.5405V23.8487H62.7676V21.6216Z" fill="black"/>
<path d="M64.9297 21.6216H62.7027V23.8487H64.9297V21.6216Z" fill="black"/>
<path d="M67.0919 21.6216H64.8649V23.8487H67.0919V21.6216Z" fill="black"/>
<path d="M69.254 21.6216H67.027V23.8487H69.254V21.6216Z" fill="black"/>
<path d="M71.4162 21.6216H69.1892V23.8487H71.4162V21.6216Z" fill="black"/>
<path d="M6.55135 23.7838H4.32432V26.0108H6.55135V23.7838Z" fill="black"/>
<path d="M8.71351 23.7838H6.48649V26.0108H8.71351V23.7838Z" fill="black"/>
<path d="M13.0378 23.7838H10.8108V26.0108H13.0378V23.7838Z" fill="black"/>
<path d="M15.2 23.7838H12.973V26.0108H15.2V23.7838Z" fill="black"/>
<path d="M17.3622 23.7838H15.1351V26.0108H17.3622V23.7838Z" fill="black"/>
<path d="M23.8487 23.7838H21.6216V26.0108H23.8487V23.7838Z" fill="black"/>
<path d="M26.0108 23.7838H23.7838V26.0108H26.0108V23.7838Z" fill="black"/>
<path d="M28.173 23.7838H25.9459V26.0108H28.173V23.7838Z" fill="black"/>
<path d="M32.4973 23.7838H30.2703V26.0108H32.4973V23.7838Z" fill="black"/>
<path d="M36.8216 23.7838H34.5946V26.0108H36.8216V23.7838Z" fill="black"/>
<path d="M41.1459 23.7838H38.9189V26.0108H41.1459V23.7838Z" fill="black"/>
<path d="M45.4703 23.7838H43.2432V26.0108H45.4703V23.7838Z" fill="black"/>
<path d="M47.6324 23.7838H45.4054V26.0108H47.6324V23.7838Z" fill="black"/>
<path d="M49.7946 23.7838H47.5676V26.0108H49.7946V23.7838Z" fill="black"/>
<path d="M51.9568 23.7838H49.7297V26.0108H51.9568V23.7838Z" fill="black"/>
<path d="M54.1189 23.7838H51.8919V26.0108H54.1189V23.7838Z" fill="black"/>
<path d="M56.2811 23.7838H54.0541V26.0108H56.2811V23.7838Z" fill="black"/>
<path d="M58.4432 23.7838H56.2162V26.0108H58.4432V23.7838Z" fill="black"/>
<path d="M62.7676 23.7838H60.5405V26.0108H62.7676V23.7838Z" fill="black"/>
<path d="M64.9297 23.7838H62.7027V26.0108H64.9297V23.7838Z" fill="black"/>
<path d="M69.254 23.7838H67.027V26.0108H69.254V23.7838Z" fill="black"/>
<path d="M71.4162 23.7838H69.1892V26.0108H71.4162V23.7838Z" fill="black"/>
<path d="M75.7405 23.7838H73.5135V26.0108H75.7405V23.7838Z" fill="black"/>
<path d="M10.8757 25.9459H8.64865V28.173H10.8757V25.9459Z" fill="black"/>
<path d="M19.5243 25.9459H17.2973V28.173H19.5243V25.9459Z" fill="black"/>
<path d="M23.8487 25.9459H21.6216V28.173H23.8487V25.9459Z" fill="black"/>
<path d="M26.0108 25.9459H23.7838V28.173H26.0108V25.9459Z" fill="black"/>
<path d="M32.4973 25.9459H30.2703V28.173H32.4973V25.9459Z" fill="black"/>
<path d="M38.9838 25.9459H36.7568V28.173H38.9838V25.9459Z" fill="black"/>
<path d="M49.7946 25.9459H47.5676V28.173H49.7946V25.9459Z" fill="black"/>
<path d="M62.7676 25.9459H60.5405V28.173H62.7676V25.9459Z" fill="black"/>
<path d="M67.0919 25.9459H64.8649V28.173H67.0919V25.9459Z" fill="black"/>
<path d="M71.4162 25.9459H69.1892V28.173H71.4162V25.9459Z" fill="black"/>
<path d="M73.5784 25.9459H71.3514V28.173H73.5784V25.9459Z" fill="black"/>
<path d="M8.71351 28.1081H6.48649V30.3351H8.71351V28.1081Z" fill="black"/>
<path d="M13.0378 28.1081H10.8108V30.3351H13.0378V28.1081Z" fill="black"/>
<path d="M15.2 28.1081H12.973V30.3351H15.2V28.1081Z" fill="black"/>
<path d="M17.3622 28.1081H15.1351V30.3351H17.3622V28.1081Z" fill="black"/>
<path d="M23.8487 28.1081H21.6216V30.3351H23.8487V28.1081Z" fill="black"/>
<path d="M26.0108 28.1081H23.7838V30.3351H26.0108V28.1081Z" fill="black"/>
<path d="M30.3351 28.1081H28.1081V30.3351H30.3351V28.1081Z" fill="black"/>
<path d="M36.8216 28.1081H34.5946V30.3351H36.8216V28.1081Z" fill="black"/>
<path d="M38.9838 28.1081H36.7568V30.3351H38.9838V28.1081Z" fill="black"/>
<path d="M45.4703 28.1081H43.2432V30.3351H45.4703V28.1081Z" fill="black"/>
<path d="M47.6324 28.1081H45.4054V30.3351H47.6324V28.1081Z" fill="black"/>
<path d="M51.9568 28.1081H49.7297V30.3351H51.9568V28.1081Z" fill="black"/>
<path d="M54.1189 28.1081H51.8919V30.3351H54.1189V28.1081Z" fill="black"/>
<path d="M56.2811 28.1081H54.0541V30.3351H56.2811V28.1081Z" fill="black"/>
<path d="M58.4432 28.1081H56.2162V30.3351H58.4432V28.1081Z" fill="black"/>
<path d="M67.0919 28.1081H64.8649V30.3351H67.0919V28.1081Z" fill="black"/>
<path d="M69.254 28.1081H67.027V30.3351H69.254V28.1081Z" fill="black"/>
<path d="M71.4162 28.1081H69.1892V30.3351H71.4162V28.1081Z" fill="black"/>
<path d="M73.5784 28.1081H71.3514V30.3351H73.5784V28.1081Z" fill="black"/>
<path d="M75.7405 28.1081H73.5135V30.3351H75.7405V28.1081Z" fill="black"/>
<path d="M6.55135 30.2703H4.32432V32.4973H6.55135V30.2703Z" fill="black"/>
<path d="M10.8757 30.2703H8.64865V32.4973H10.8757V30.2703Z" fill="black"/>
<path d="M15.2 30.2703H12.973V32.4973H15.2V30.2703Z" fill="black"/>
<path d="M17.3622 30.2703H15.1351V32.4973H17.3622V30.2703Z" fill="black"/>
<path d="M19.5243 30.2703H17.2973V32.4973H19.5243V30.2703Z" fill="black"/>
<path d="M21.6865 30.2703H19.4595V32.4973H21.6865V30.2703Z" fill="black"/>
<path d="M23.8487 30.2703H21.6216V32.4973H23.8487V30.2703Z" fill="black"/>
<path d="M26.0108 30.2703H23.7838V32.4973H26.0108V30.2703Z" fill="black"/>
<path d="M28.173 30.2703H25.9459V32.4973H28.173V30.2703Z" fill="black"/>
<path d="M38.9838 30.2703H36.7568V32.4973H38.9838V30.2703Z" fill="black"/>
<path d="M45.4703 30.2703H43.2432V32.4973H45.4703V30.2703Z" fill="black"/>
<path d="M54.1189 30.2703H51.8919V32.4973H54.1189V30.2703Z" fill="black"/>
<path d="M60.6054 30.2703H58.3784V32.4973H60.6054V30.2703Z" fill="black"/>
<path d="M64.9297 30.2703H62.7027V32.4973H64.9297V30.2703Z" fill="black"/>
<path d="M67.0919 30.2703H64.8649V32.4973H67.0919V30.2703Z" fill="black"/>
<path d="M69.254 30.2703H67.027V32.4973H69.254V30.2703Z" fill="black"/>
<path d="M21.6865 32.4324H19.4595V34.6595H21.6865V32.4324Z" fill="black"/>
<path d="M26.0108 32.4324H23.7838V34.6595H26.0108V32.4324Z" fill="black"/>
<path d="M30.3351 32.4324H28.1081V34.6595H30.3351V32.4324Z" fill="black"/>
<path d="M32.4973 32.4324H30.2703V34.6595H32.4973V32.4324Z" fill="black"/>
<path d="M36.8216 32.4324H34.5946V34.6595H36.8216V32.4324Z" fill="black"/>
<path d="M41.1459 32.4324H38.9189V34.6595H41.1459V32.4324Z" fill="black"/>
<path d="M43.3081 32.4324H41.0811V34.6595H43.3081V32.4324Z" fill="black"/>
<path d="M47.6324 32.4324H45.4054V34.6595H47.6324V32.4324Z" fill="black"/>
<path d="M51.9568 32.4324H49.7297V34.6595H51.9568V32.4324Z" fill="black"/>
<path d="M54.1189 32.4324H51.8919V34.6595H54.1189V32.4324Z" fill="black"/>
<path d="M56.2811 32.4324H54.0541V34.6595H56.2811V32.4324Z" fill="black"/>
<path d="M62.7676 32.4324H60.5405V34.6595H62.7676V32.4324Z" fill="black"/>
<path d="M69.254 32.4324H67.027V34.6595H69.254V32.4324Z" fill="black"/>
<path d="M71.4162 32.4324H69.1892V34.6595H71.4162V32.4324Z" fill="black"/>
<path d="M73.5784 32.4324H71.3514V34.6595H73.5784V32.4324Z" fill="black"/>
<path d="M75.7405 32.4324H73.5135V34.6595H75.7405V32.4324Z" fill="black"/>
<path d="M8.71351 34.5946H6.48649V36.8216H8.71351V34.5946Z" fill="black"/>
<path d="M10.8757 34.5946H8.64865V36.8216H10.8757V34.5946Z" fill="black"/>
<path d="M13.0378 34.5946H10.8108V36.8216H13.0378V34.5946Z" fill="black"/>
<path d="M17.3622 34.5946H15.1351V36.8216H17.3622V34.5946Z" fill="black"/>
<path d="M19.5243 34.5946H17.2973V36.8216H19.5243V34.5946Z" fill="black"/>
<path d="M23.8487 34.5946H21.6216V36.8216H23.8487V34.5946Z" fill="black"/>
<path d="M28.173 34.5946H25.9459V36.8216H28.173V34.5946Z" fill="black"/>
<path d="M32.4973 34.5946H30.2703V36.8216H32.4973V34.5946Z" fill="black"/>
<path d="M34.6595 34.5946H32.4324V36.8216H34.6595V34.5946Z" fill="black"/>
<path d="M36.8216 34.5946H34.5946V36.8216H36.8216V34.5946Z" fill="black"/>
<path d="M41.1459 34.5946H38.9189V36.8216H41.1459V34.5946Z" fill="black"/>
<path d="M43.3081 34.5946H41.0811V36.8216H43.3081V34.5946Z" fill="black"/>
<path d="M49.7946 34.5946H47.5676V36.8216H49.7946V34.5946Z" fill="black"/>
<path d="M51.9568 34.5946H49.7297V36.8216H51.9568V34.5946Z" fill="black"/>
<path d="M60.6054 34.5946H58.3784V36.8216H60.6054V34.5946Z" fill="black"/>
<path d="M62.7676 34.5946H60.5405V36.8216H62.7676V34.5946Z" fill="black"/>
<path d="M69.254 34.5946H67.027V36.8216H69.254V34.5946Z" fill="black"/>
<path d="M71.4162 34.5946H69.1892V36.8216H71.4162V34.5946Z" fill="black"/>
<path d="M73.5784 34.5946H71.3514V36.8216H73.5784V34.5946Z" fill="black"/>
<path d="M17.3622 36.7568H15.1351V38.9838H17.3622V36.7568Z" fill="black"/>
<path d="M21.6865 36.7568H19.4595V38.9838H21.6865V36.7568Z" fill="black"/>
<path d="M23.8487 36.7568H21.6216V38.9838H23.8487V36.7568Z" fill="black"/>
<path d="M26.0108 36.7568H23.7838V38.9838H26.0108V36.7568Z" fill="black"/>
<path d="M30.3351 36.7568H28.1081V38.9838H30.3351V36.7568Z" fill="black"/>
<path d="M34.6595 36.7568H32.4324V38.9838H34.6595V36.7568Z" fill="black"/>
<path d="M36.8216 36.7568H34.5946V38.9838H36.8216V36.7568Z" fill="black"/>
<path d="M38.9838 36.7568H36.7568V38.9838H38.9838V36.7568Z" fill="black"/>
<path d="M51.9568 36.7568H49.7297V38.9838H51.9568V36.7568Z" fill="black"/>
<path d="M60.6054 36.7568H58.3784V38.9838H60.6054V36.7568Z" fill="black"/>
<path d="M62.7676 36.7568H60.5405V38.9838H62.7676V36.7568Z" fill="black"/>
<path d="M67.0919 36.7568H64.8649V38.9838H67.0919V36.7568Z" fill="black"/>
<path d="M69.254 36.7568H67.027V38.9838H69.254V36.7568Z" fill="black"/>
<path d="M71.4162 36.7568H69.1892V38.9838H71.4162V36.7568Z" fill="black"/>
<path d="M6.55135 38.9189H4.32432V41.1459H6.55135V38.9189Z" fill="black"/>
<path d="M8.71351 38.9189H6.48649V41.1459H8.71351V38.9189Z" fill="black"/>
<path d="M10.8757 38.9189H8.64865V41.1459H10.8757V38.9189Z" fill="black"/>
<path d="M13.0378 38.9189H10.8108V41.1459H13.0378V38.9189Z" fill="black"/>
<path d="M17.3622 38.9189H15.1351V41.1459H17.3622V38.9189Z" fill="black"/>
<path d="M19.5243 38.9189H17.2973V41.1459H19.5243V38.9189Z" fill="black"/>
<path d="M21.6865 38.9189H19.4595V41.1459H21.6865V38.9189Z" fill="black"/>
<path d="M26.0108 38.9189H23.7838V41.1459H26.0108V38.9189Z" fill="black"/>
<path d="M36.8216 38.9189H34.5946V41.1459H36.8216V38.9189Z" fill="black"/>
<path d="M41.1459 38.9189H38.9189V41.1459H41.1459V38.9189Z" fill="black"/>
<path d="M43.3081 38.9189H41.0811V41.1459H43.3081V38.9189Z" fill="black"/>
<path d="M47.6324 38.9189H45.4054V41.1459H47.6324V38.9189Z" fill="black"/>
<path d="M54.1189 38.9189H51.8919V41.1459H54.1189V38.9189Z" fill="black"/>
<path d="M56.2811 38.9189H54.0541V41.1459H56.2811V38.9189Z" fill="black"/>
<path d="M60.6054 38.9189H58.3784V41.1459H60.6054V38.9189Z" fill="black"/>
<path d="M64.9297 38.9189H62.7027V41.1459H64.9297V38.9189Z" fill="black"/>
<path d="M67.0919 38.9189H64.8649V41.1459H67.0919V38.9189Z" fill="black"/>
<path d="M75.7405 38.9189H73.5135V41.1459H75.7405V38.9189Z" fill="black"/>
<path d="M17.3622 41.0811H15.1351V43.3081H17.3622V41.0811Z" fill="black"/>
<path d="M23.8487 41.0811H21.6216V43.3081H23.8487V41.0811Z" fill="black"/>
<path d="M26.0108 41.0811H23.7838V43.3081H26.0108V41.0811Z" fill="black"/>
<path d="M28.173 41.0811H25.9459V43.3081H28.173V41.0811Z" fill="black"/>
<path d="M32.4973 41.0811H30.2703V43.3081H32.4973V41.0811Z" fill="black"/>
<path d="M36.8216 41.0811H34.5946V43.3081H36.8216V41.0811Z" fill="black"/>
<path d="M41.1459 41.0811H38.9189V43.3081H41.1459V41.0811Z" fill="black"/>
<path d="M47.6324 41.0811H45.4054V43.3081H47.6324V41.0811Z" fill="black"/>
<path d="M49.7946 41.0811H47.5676V43.3081H49.7946V41.0811Z" fill="black"/>
<path d="M51.9568 41.0811H49.7297V43.3081H51.9568V41.0811Z" fill="black"/>
<path d="M54.1189 41.0811H51.8919V43.3081H54.1189V41.0811Z" fill="black"/>
<path d="M56.2811 41.0811H54.0541V43.3081H56.2811V41.0811Z" fill="black"/>
<path d="M62.7676 41.0811H60.5405V43.3081H62.7676V41.0811Z" fill="black"/>
<path d="M64.9297 41.0811H62.7027V43.3081H64.9297V41.0811Z" fill="black"/>
<path d="M69.254 41.0811H67.027V43.3081H69.254V41.0811Z" fill="black"/>
<path d="M71.4162 41.0811H69.1892V43.3081H71.4162V41.0811Z" fill="black"/>
<path d="M73.5784 41.0811H71.3514V43.3081H73.5784V41.0811Z" fill="black"/>
<path d="M75.7405 41.0811H73.5135V43.3081H75.7405V41.0811Z" fill="black"/>
<path d="M6.55135 43.2432H4.32432V45.4703H6.55135V43.2432Z" fill="black"/>
<path d="M8.71351 43.2432H6.48649V45.4703H8.71351V43.2432Z" fill="black"/>
<path d="M13.0378 43.2432H10.8108V45.4703H13.0378V43.2432Z" fill="black"/>
<path d="M19.5243 43.2432H17.2973V45.4703H19.5243V43.2432Z" fill="black"/>
<path d="M21.6865 43.2432H19.4595V45.4703H21.6865V43.2432Z" fill="black"/>
<path d="M23.8487 43.2432H21.6216V45.4703H23.8487V43.2432Z" fill="black"/>
<path d="M26.0108 43.2432H23.7838V45.4703H26.0108V43.2432Z" fill="black"/>
<path d="M28.173 43.2432H25.9459V45.4703H28.173V43.2432Z" fill="black"/>
<path d="M30.3351 43.2432H28.1081V45.4703H30.3351V43.2432Z" fill="black"/>
<path d="M36.8216 43.2432H34.5946V45.4703H36.8216V43.2432Z" fill="black"/>
<path d="M38.9838 43.2432H36.7568V45.4703H38.9838V43.2432Z" fill="black"/>
<path d="M41.1459 43.2432H38.9189V45.4703H41.1459V43.2432Z" fill="black"/>
<path d="M45.4703 43.2432H43.2432V45.4703H45.4703V43.2432Z" fill="black"/>
<path d="M51.9568 43.2432H49.7297V45.4703H51.9568V43.2432Z" fill="black"/>
<path d="M54.1189 43.2432H51.8919V45.4703H54.1189V43.2432Z" fill="black"/>
<path d="M58.4432 43.2432H56.2162V45.4703H58.4432V43.2432Z" fill="black"/>
<path d="M60.6054 43.2432H58.3784V45.4703H60.6054V43.2432Z" fill="black"/>
<path d="M62.7676 43.2432H60.5405V45.4703H62.7676V43.2432Z" fill="black"/>
<path d="M64.9297 43.2432H62.7027V45.4703H64.9297V43.2432Z" fill="black"/>
<path d="M67.0919 43.2432H64.8649V45.4703H67.0919V43.2432Z" fill="black"/>
<path d="M71.4162 43.2432H69.1892V45.4703H71.4162V43.2432Z" fill="black"/>
<path d="M73.5784 43.2432H71.3514V45.4703H73.5784V43.2432Z" fill="black"/>
<path d="M8.71351 45.4054H6.48649V47.6324H8.71351V45.4054Z" fill="black"/>
<path d="M15.2 45.4054H12.973V47.6324H15.2V45.4054Z" fill="black"/>
<path d="M17.3622 45.4054H15.1351V47.6324H17.3622V45.4054Z" fill="black"/>
<path d="M21.6865 45.4054H19.4595V47.6324H21.6865V45.4054Z" fill="black"/>
<path d="M23.8487 45.4054H21.6216V47.6324H23.8487V45.4054Z" fill="black"/>
<path d="M30.3351 45.4054H28.1081V47.6324H30.3351V45.4054Z" fill="black"/>
<path d="M36.8216 45.4054H34.5946V47.6324H36.8216V45.4054Z" fill="black"/>
<path d="M38.9838 45.4054H36.7568V47.6324H38.9838V45.4054Z" fill="black"/>
<path d="M45.4703 45.4054H43.2432V47.6324H45.4703V45.4054Z" fill="black"/>
<path d="M47.6324 45.4054H45.4054V47.6324H47.6324V45.4054Z" fill="black"/>
<path d="M49.7946 45.4054H47.5676V47.6324H49.7946V45.4054Z" fill="black"/>
<path d="M51.9568 45.4054H49.7297V47.6324H51.9568V45.4054Z" fill="black"/>
<path d="M54.1189 45.4054H51.8919V47.6324H54.1189V45.4054Z" fill="black"/>
<path d="M58.4432 45.4054H56.2162V47.6324H58.4432V45.4054Z" fill="black"/>
<path d="M60.6054 45.4054H58.3784V47.6324H60.6054V45.4054Z" fill="black"/>
<path d="M62.7676 45.4054H60.5405V47.6324H62.7676V45.4054Z" fill="black"/>
<path d="M64.9297 45.4054H62.7027V47.6324H64.9297V45.4054Z" fill="black"/>
<path d="M67.0919 45.4054H64.8649V47.6324H67.0919V45.4054Z" fill="black"/>
<path d="M69.254 45.4054H67.027V47.6324H69.254V45.4054Z" fill="black"/>
<path d="M71.4162 45.4054H69.1892V47.6324H71.4162V45.4054Z" fill="black"/>
<path d="M73.5784 45.4054H71.3514V47.6324H73.5784V45.4054Z" fill="black"/>
<path d="M6.55135 47.5676H4.32432V49.7946H6.55135V47.5676Z" fill="black"/>
<path d="M15.2 47.5676H12.973V49.7946H15.2V47.5676Z" fill="black"/>
<path d="M17.3622 47.5676H15.1351V49.7946H17.3622V47.5676Z" fill="black"/>
<path d="M19.5243 47.5676H17.2973V49.7946H19.5243V47.5676Z" fill="black"/>
<path d="M21.6865 47.5676H19.4595V49.7946H21.6865V47.5676Z" fill="black"/>
<path d="M23.8487 47.5676H21.6216V49.7946H23.8487V47.5676Z" fill="black"/>
<path d="M30.3351 47.5676H28.1081V49.7946H30.3351V47.5676Z" fill="black"/>
<path d="M34.6595 47.5676H32.4324V49.7946H34.6595V47.5676Z" fill="black"/>
<path d="M36.8216 47.5676H34.5946V49.7946H36.8216V47.5676Z" fill="black"/>
<path d="M38.9838 47.5676H36.7568V49.7946H38.9838V47.5676Z" fill="black"/>
<path d="M43.3081 47.5676H41.0811V49.7946H43.3081V47.5676Z" fill="black"/>
<path d="M45.4703 47.5676H43.2432V49.7946H45.4703V47.5676Z" fill="black"/>
<path d="M47.6324 47.5676H45.4054V49.7946H47.6324V47.5676Z" fill="black"/>
<path d="M49.7946 47.5676H47.5676V49.7946H49.7946V47.5676Z" fill="black"/>
<path d="M54.1189 47.5676H51.8919V49.7946H54.1189V47.5676Z" fill="black"/>
<path d="M58.4432 47.5676H56.2162V49.7946H58.4432V47.5676Z" fill="black"/>
<path d="M60.6054 47.5676H58.3784V49.7946H60.6054V47.5676Z" fill="black"/>
<path d="M64.9297 47.5676H62.7027V49.7946H64.9297V47.5676Z" fill="black"/>
<path d="M67.0919 47.5676H64.8649V49.7946H67.0919V47.5676Z" fill="black"/>
<path d="M69.254 47.5676H67.027V49.7946H69.254V47.5676Z" fill="black"/>
<path d="M73.5784 47.5676H71.3514V49.7946H73.5784V47.5676Z" fill="black"/>
<path d="M75.7405 47.5676H73.5135V49.7946H75.7405V47.5676Z" fill="black"/>
<path d="M6.55135 49.7297H4.32432V51.9568H6.55135V49.7297Z" fill="black"/>
<path d="M8.71351 49.7297H6.48649V51.9568H8.71351V49.7297Z" fill="black"/>
<path d="M23.8487 49.7297H21.6216V51.9568H23.8487V49.7297Z" fill="black"/>
<path d="M26.0108 49.7297H23.7838V51.9568H26.0108V49.7297Z" fill="black"/>
<path d="M28.173 49.7297H25.9459V51.9568H28.173V49.7297Z" fill="black"/>
<path d="M32.4973 49.7297H30.2703V51.9568H32.4973V49.7297Z" fill="black"/>
<path d="M34.6595 49.7297H32.4324V51.9568H34.6595V49.7297Z" fill="black"/>
<path d="M45.4703 49.7297H43.2432V51.9568H45.4703V49.7297Z" fill="black"/>
<path d="M47.6324 49.7297H45.4054V51.9568H47.6324V49.7297Z" fill="black"/>
<path d="M49.7946 49.7297H47.5676V51.9568H49.7946V49.7297Z" fill="black"/>
<path d="M51.9568 49.7297H49.7297V51.9568H51.9568V49.7297Z" fill="black"/>
<path d="M54.1189 49.7297H51.8919V51.9568H54.1189V49.7297Z" fill="black"/>
<path d="M56.2811 49.7297H54.0541V51.9568H56.2811V49.7297Z" fill="black"/>
<path d="M58.4432 49.7297H56.2162V51.9568H58.4432V49.7297Z" fill="black"/>
<path d="M62.7676 49.7297H60.5405V51.9568H62.7676V49.7297Z" fill="black"/>
<path d="M64.9297 49.7297H62.7027V51.9568H64.9297V49.7297Z" fill="black"/>
<path d="M69.254 49.7297H67.027V51.9568H69.254V49.7297Z" fill="black"/>
<path d="M75.7405 49.7297H73.5135V51.9568H75.7405V49.7297Z" fill="black"/>
<path d="M6.55135 51.8919H4.32432V54.1189H6.55135V51.8919Z" fill="black"/>
<path d="M19.5243 51.8919H17.2973V54.1189H19.5243V51.8919Z" fill="black"/>
<path d="M26.0108 51.8919H23.7838V54.1189H26.0108V51.8919Z" fill="black"/>
<path d="M30.3351 51.8919H28.1081V54.1189H30.3351V51.8919Z" fill="black"/>
<path d="M34.6595 51.8919H32.4324V54.1189H34.6595V51.8919Z" fill="black"/>
<path d="M51.9568 51.8919H49.7297V54.1189H51.9568V51.8919Z" fill="black"/>
<path d="M73.5784 51.8919H71.3514V54.1189H73.5784V51.8919Z" fill="black"/>
<path d="M6.55135 54.0541H4.32432V56.2811H6.55135V54.0541Z" fill="black"/>
<path d="M10.8757 54.0541H8.64865V56.2811H10.8757V54.0541Z" fill="black"/>
<path d="M21.6865 54.0541H19.4595V56.2811H21.6865V54.0541Z" fill="black"/>
<path d="M28.173 54.0541H25.9459V56.2811H28.173V54.0541Z" fill="black"/>
<path d="M36.8216 54.0541H34.5946V56.2811H36.8216V54.0541Z" fill="black"/>
<path d="M38.9838 54.0541H36.7568V56.2811H38.9838V54.0541Z" fill="black"/>
<path d="M49.7946 54.0541H47.5676V56.2811H49.7946V54.0541Z" fill="black"/>
<path d="M51.9568 54.0541H49.7297V56.2811H51.9568V54.0541Z" fill="black"/>
<path d="M60.6054 54.0541H58.3784V56.2811H60.6054V54.0541Z" fill="black"/>
<path d="M69.254 54.0541H67.027V56.2811H69.254V54.0541Z" fill="black"/>
<path d="M71.4162 54.0541H69.1892V56.2811H71.4162V54.0541Z" fill="black"/>
<path d="M75.7405 54.0541H73.5135V56.2811H75.7405V54.0541Z" fill="black"/>
<path d="M6.55135 56.2162H4.32432V58.4432H6.55135V56.2162Z" fill="black"/>
<path d="M15.2 56.2162H12.973V58.4432H15.2V56.2162Z" fill="black"/>
<path d="M17.3622 56.2162H15.1351V58.4432H17.3622V56.2162Z" fill="black"/>
<path d="M19.5243 56.2162H17.2973V58.4432H19.5243V56.2162Z" fill="black"/>
<path d="M21.6865 56.2162H19.4595V58.4432H21.6865V56.2162Z" fill="black"/>
<path d="M36.8216 56.2162H34.5946V58.4432H36.8216V56.2162Z" fill="black"/>
<path d="M43.3081 56.2162H41.0811V58.4432H43.3081V56.2162Z" fill="black"/>
<path d="M54.1189 56.2162H51.8919V58.4432H54.1189V56.2162Z" fill="black"/>
<path d="M58.4432 56.2162H56.2162V58.4432H58.4432V56.2162Z" fill="black"/>
<path d="M60.6054 56.2162H58.3784V58.4432H60.6054V56.2162Z" fill="black"/>
<path d="M62.7676 56.2162H60.5405V58.4432H62.7676V56.2162Z" fill="black"/>
<path d="M64.9297 56.2162H62.7027V58.4432H64.9297V56.2162Z" fill="black"/>
<path d="M67.0919 56.2162H64.8649V58.4432H67.0919V56.2162Z" fill="black"/>
<path d="M69.254 56.2162H67.027V58.4432H69.254V56.2162Z" fill="black"/>
<path d="M73.5784 56.2162H71.3514V58.4432H73.5784V56.2162Z" fill="black"/>
<path d="M23.8487 58.3784H21.6216V60.6054H23.8487V58.3784Z" fill="black"/>
<path d="M28.173 58.3784H25.9459V60.6054H28.173V58.3784Z" fill="black"/>
<path d="M30.3351 58.3784H28.1081V60.6054H30.3351V58.3784Z" fill="black"/>
<path d="M41.1459 58.3784H38.9189V60.6054H41.1459V58.3784Z" fill="black"/>
<path d="M43.3081 58.3784H41.0811V60.6054H43.3081V58.3784Z" fill="black"/>
<path d="M47.6324 58.3784H45.4054V60.6054H47.6324V58.3784Z" fill="black"/>
<path d="M51.9568 58.3784H49.7297V60.6054H51.9568V58.3784Z" fill="black"/>
<path d="M56.2811 58.3784H54.0541V60.6054H56.2811V58.3784Z" fill="black"/>
<path d="M58.4432 58.3784H56.2162V60.6054H58.4432V58.3784Z" fill="black"/>
<path d="M67.0919 58.3784H64.8649V60.6054H67.0919V58.3784Z" fill="black"/>
<path d="M71.4162 58.3784H69.1892V60.6054H71.4162V58.3784Z" fill="black"/>
<path d="M75.7405 58.3784H73.5135V60.6054H75.7405V58.3784Z" fill="black"/>
<path d="M26.0108 60.5405H23.7838V62.7676H26.0108V60.5405Z" fill="black"/>
<path d="M28.173 60.5405H25.9459V62.7676H28.173V60.5405Z" fill="black"/>
<path d="M30.3351 60.5405H28.1081V62.7676H30.3351V60.5405Z" fill="black"/>
<path d="M32.4973 60.5405H30.2703V62.7676H32.4973V60.5405Z" fill="black"/>
<path d="M36.8216 60.5405H34.5946V62.7676H36.8216V60.5405Z" fill="black"/>
<path d="M38.9838 60.5405H36.7568V62.7676H38.9838V60.5405Z" fill="black"/>
<path d="M41.1459 60.5405H38.9189V62.7676H41.1459V60.5405Z" fill="black"/>
<path d="M45.4703 60.5405H43.2432V62.7676H45.4703V60.5405Z" fill="black"/>
<path d="M49.7946 60.5405H47.5676V62.7676H49.7946V60.5405Z" fill="black"/>
<path d="M56.2811 60.5405H54.0541V62.7676H56.2811V60.5405Z" fill="black"/>
<path d="M58.4432 60.5405H56.2162V62.7676H58.4432V60.5405Z" fill="black"/>
<path d="M62.7676 60.5405H60.5405V62.7676H62.7676V60.5405Z" fill="black"/>
<path d="M67.0919 60.5405H64.8649V62.7676H67.0919V60.5405Z" fill="black"/>
<path d="M71.4162 60.5405H69.1892V62.7676H71.4162V60.5405Z" fill="black"/>
<path d="M23.8487 62.7027H21.6216V64.9297H23.8487V62.7027Z" fill="black"/>
<path d="M26.0108 62.7027H23.7838V64.9297H26.0108V62.7027Z" fill="black"/>
<path d="M30.3351 62.7027H28.1081V64.9297H30.3351V62.7027Z" fill="black"/>
<path d="M34.6595 62.7027H32.4324V64.9297H34.6595V62.7027Z" fill="black"/>
<path d="M41.1459 62.7027H38.9189V64.9297H41.1459V62.7027Z" fill="black"/>
<path d="M43.3081 62.7027H41.0811V64.9297H43.3081V62.7027Z" fill="black"/>
<path d="M45.4703 62.7027H43.2432V64.9297H45.4703V62.7027Z" fill="black"/>
<path d="M49.7946 62.7027H47.5676V64.9297H49.7946V62.7027Z" fill="black"/>
<path d="M51.9568 62.7027H49.7297V64.9297H51.9568V62.7027Z" fill="black"/>
<path d="M56.2811 62.7027H54.0541V64.9297H56.2811V62.7027Z" fill="black"/>
<path d="M58.4432 62.7027H56.2162V64.9297H58.4432V62.7027Z" fill="black"/>
<path d="M67.0919 62.7027H64.8649V64.9297H67.0919V62.7027Z" fill="black"/>
<path d="M69.254 62.7027H67.027V64.9297H69.254V62.7027Z" fill="black"/>
<path d="M71.4162 62.7027H69.1892V64.9297H71.4162V62.7027Z" fill="black"/>
<path d="M23.8487 64.8649H21.6216V67.0919H23.8487V64.8649Z" fill="black"/>
<path d="M26.0108 64.8649H23.7838V67.0919H26.0108V64.8649Z" fill="black"/>
<path d="M34.6595 64.8649H32.4324V67.0919H34.6595V64.8649Z" fill="black"/>
<path d="M41.1459 64.8649H38.9189V67.0919H41.1459V64.8649Z" fill="black"/>
<path d="M45.4703 64.8649H43.2432V67.0919H45.4703V64.8649Z" fill="black"/>
<path d="M49.7946 64.8649H47.5676V67.0919H49.7946V64.8649Z" fill="black"/>
<path d="M54.1189 64.8649H51.8919V67.0919H54.1189V64.8649Z" fill="black"/>
<path d="M58.4432 64.8649H56.2162V67.0919H58.4432V64.8649Z" fill="black"/>
<path d="M60.6054 64.8649H58.3784V67.0919H60.6054V64.8649Z" fill="black"/>
<path d="M62.7676 64.8649H60.5405V67.0919H62.7676V64.8649Z" fill="black"/>
<path d="M64.9297 64.8649H62.7027V67.0919H64.9297V64.8649Z" fill="black"/>
<path d="M67.0919 64.8649H64.8649V67.0919H67.0919V64.8649Z" fill="black"/>
<path d="M69.254 64.8649H67.027V67.0919H69.254V64.8649Z" fill="black"/>
<path d="M75.7405 64.8649H73.5135V67.0919H75.7405V64.8649Z" fill="black"/>
<path d="M23.8487 67.027H21.6216V69.254H23.8487V67.027Z" fill="black"/>
<path d="M38.9838 67.027H36.7568V69.254H38.9838V67.027Z" fill="black"/>
<path d="M41.1459 67.027H38.9189V69.254H41.1459V67.027Z" fill="black"/>
<path d="M47.6324 67.027H45.4054V69.254H47.6324V67.027Z" fill="black"/>
<path d="M49.7946 67.027H47.5676V69.254H49.7946V67.027Z" fill="black"/>
<path d="M58.4432 67.027H56.2162V69.254H58.4432V67.027Z" fill="black"/>
<path d="M60.6054 67.027H58.3784V69.254H60.6054V67.027Z" fill="black"/>
<path d="M67.0919 67.027H64.8649V69.254H67.0919V67.027Z" fill="black"/>
<path d="M71.4162 67.027H69.1892V69.254H71.4162V67.027Z" fill="black"/>
<path d="M73.5784 67.027H71.3514V69.254H73.5784V67.027Z" fill="black"/>
<path d="M75.7405 67.027H73.5135V69.254H75.7405V67.027Z" fill="black"/>
<path d="M23.8487 69.1892H21.6216V71.4162H23.8487V69.1892Z" fill="black"/>
<path d="M30.3351 69.1892H28.1081V71.4162H30.3351V69.1892Z" fill="black"/>
<path d="M32.4973 69.1892H30.2703V71.4162H32.4973V69.1892Z" fill="black"/>
<path d="M36.8216 69.1892H34.5946V71.4162H36.8216V69.1892Z" fill="black"/>
<path d="M43.3081 69.1892H41.0811V71.4162H43.3081V69.1892Z" fill="black"/>
<path d="M45.4703 69.1892H43.2432V71.4162H45.4703V69.1892Z" fill="black"/>
<path d="M49.7946 69.1892H47.5676V71.4162H49.7946V69.1892Z" fill="black"/>
<path d="M51.9568 69.1892H49.7297V71.4162H51.9568V69.1892Z" fill="black"/>
<path d="M54.1189 69.1892H51.8919V71.4162H54.1189V69.1892Z" fill="black"/>
<path d="M58.4432 69.1892H56.2162V71.4162H58.4432V69.1892Z" fill="black"/>
<path d="M60.6054 69.1892H58.3784V71.4162H60.6054V69.1892Z" fill="black"/>
<path d="M62.7676 69.1892H60.5405V71.4162H62.7676V69.1892Z" fill="black"/>
<path d="M64.9297 69.1892H62.7027V71.4162H64.9297V69.1892Z" fill="black"/>
<path d="M69.254 69.1892H67.027V71.4162H69.254V69.1892Z" fill="black"/>
<path d="M26.0108 71.3514H23.7838V73.5784H26.0108V71.3514Z" fill="black"/>
<path d="M30.3351 71.3514H28.1081V73.5784H30.3351V71.3514Z" fill="black"/>
<path d="M38.9838 71.3514H36.7568V73.5784H38.9838V71.3514Z" fill="black"/>
<path d="M41.1459 71.3514H38.9189V73.5784H41.1459V71.3514Z" fill="black"/>
<path d="M51.9568 71.3514H49.7297V73.5784H51.9568V71.3514Z" fill="black"/>
<path d="M60.6054 71.3514H58.3784V73.5784H60.6054V71.3514Z" fill="black"/>
<path d="M62.7676 71.3514H60.5405V73.5784H62.7676V71.3514Z" fill="black"/>
<path d="M67.0919 71.3514H64.8649V73.5784H67.0919V71.3514Z" fill="black"/>
<path d="M69.254 71.3514H67.027V73.5784H69.254V71.3514Z" fill="black"/>
<path d="M71.4162 71.3514H69.1892V73.5784H71.4162V71.3514Z" fill="black"/>
<path d="M23.8487 73.5135H21.6216V75.7405H23.8487V73.5135Z" fill="black"/>
<path d="M26.0108 73.5135H23.7838V75.7405H26.0108V73.5135Z" fill="black"/>
<path d="M36.8216 73.5135H34.5946V75.7405H36.8216V73.5135Z" fill="black"/>
<path d="M43.3081 73.5135H41.0811V75.7405H43.3081V73.5135Z" fill="black"/>
<path d="M45.4703 73.5135H43.2432V75.7405H45.4703V73.5135Z" fill="black"/>
<path d="M47.6324 73.5135H45.4054V75.7405H47.6324V73.5135Z" fill="black"/>
<path d="M54.1189 73.5135H51.8919V75.7405H54.1189V73.5135Z" fill="black"/>
<path d="M56.2811 73.5135H54.0541V75.7405H56.2811V73.5135Z" fill="black"/>
<path d="M58.4432 73.5135H56.2162V75.7405H58.4432V73.5135Z" fill="black"/>
<path d="M60.6054 73.5135H58.3784V75.7405H60.6054V73.5135Z" fill="black"/>
<path d="M64.9297 73.5135H62.7027V75.7405H64.9297V73.5135Z" fill="black"/>
<path d="M73.5784 73.5135H71.3514V75.7405H73.5784V73.5135Z" fill="black"/>
<path d="M4.32432 4.32432V19.4595H19.4595V4.32432H4.32432ZM17.2973 17.2973H6.48649V6.48649H17.2973V17.2973Z" fill="black"/>
<path d="M60.5405 4.32432V19.4595H75.6757V4.32432H60.5405ZM73.5135 17.2973H62.7027V6.48649H73.5135V17.2973Z" fill="black"/>
<path d="M4.32432 60.5405V75.6757H19.4595V60.5405H4.32432ZM17.2973 73.5135H6.48649V62.7027H17.2973V73.5135Z" fill="black"/>
<path d="M15.1351 8.64865H8.64865V15.1351H15.1351V8.64865Z" fill="black"/>
<path d="M71.3514 8.64865H64.8649V15.1351H71.3514V8.64865Z" fill="black"/>
<path d="M15.1351 64.8649H8.64865V71.3514H15.1351V64.8649Z" fill="black"/>
</g>
</g>
</svg>
